<svg width="220" height="51" viewBox="0 0 220 51" fill="none" xmlns="http://www.w3.org/2000/svg">
<g clip-path="url(#clip0_1_2279)">
<path d="M187.078 0H170.618V16.308H187.078V0Z" fill="#EA5153"/>
<path d="M203.539 0H187.078V16.308H203.539V0Z" fill="#F18815"/>
<path d="M220 0H203.539V16.308H220V0Z" fill="#F7D455"/>
<path d="M187.078 16.3081H170.618V32.6161H187.078V16.3081Z" fill="#008278"/>
<path d="M203.539 16.3081H187.078V32.6161H203.539V16.3081Z" fill="#00B1AA"/>
<path d="M220 16.3081H203.539V32.6161H220V16.3081Z" fill="#98CBD0"/>
<path d="M187.078 32.616H170.618V48.924H187.078V32.616Z" fill="#4759A4"/>
<path d="M203.539 32.616H187.078V48.924H203.539V32.616Z" fill="#05365F"/>
<path d="M220 32.616H203.539V48.924H220V32.616Z" fill="#307BBF"/>
<path d="M20.6074 0H24.1406V32.7551H20.7442V28.3138C19.3842 30.7816 15.9434 33.2933 11.4161 33.2933C4.57533 33.2933 0 27.8195 0 21.7159C0 15.6123 4.57533 10.1385 11.4124 10.1385C15.9397 10.1385 19.3842 12.6063 20.6074 15.162V0ZM12.0038 30.4191C16.3056 30.4191 20.6074 27.2776 20.6074 21.7159C20.6074 16.1542 16.3056 13.0127 12.0038 13.0127C6.84081 13.0127 3.53313 17.0073 3.53313 21.7159C3.53313 26.4245 6.84081 30.4191 12.0038 30.4191Z" fill="#05365F"/>
<path d="M32.1382 23.1511C32.6814 27.7279 35.76 30.5985 40.4277 30.5985C43.9165 30.5985 46.5885 28.9398 47.9005 26.8309H51.2525C49.5784 30.4667 45.502 33.2933 40.4721 33.2933C33.136 33.2933 28.6531 28.0904 28.6531 21.7159C28.6531 15.3413 33.4538 10.1384 40.291 10.1384C47.1281 10.1384 51.7478 15.1619 51.7478 21.4888V23.1475H32.1382V23.1511ZM32.0938 20.46H48.4438C48.0816 16.0626 45.1361 12.7417 40.3353 12.7417C35.8967 12.7417 32.5447 15.7917 32.0938 20.46Z" fill="#05365F"/>
<path d="M56.0237 32.7551L62.6354 0H68.3416L65.4885 14.0452C66.8929 11.6653 69.746 9.82727 73.1867 9.82727C79.2108 9.82727 83.3759 14.4919 83.3759 20.2806C83.3759 27.3692 78.3053 33.2933 70.9656 33.2933C66.7524 33.2933 63.4928 30.8695 62.4506 28.1344L61.5008 32.7551H56.02H56.0237ZM70.3817 28.6287C74.8646 28.6287 77.6734 24.9929 77.6734 20.731C77.6734 17.0513 75.3635 14.4956 71.5126 14.4956C67.074 14.4956 64.0398 18.1753 64.0398 22.4812C64.0398 26.117 66.7561 28.6287 70.3817 28.6287Z" fill="#05365F"/>
<path d="M92.0276 23.466C92.3898 26.8308 94.5629 29.1192 98.5949 29.1192C101.359 29.1192 103.484 27.9073 104.575 26.201H109.874C108.333 30.1957 103.987 33.2896 98.5986 33.2896C90.9004 33.2896 86.4175 28.2185 86.4175 21.5327C86.4175 14.847 91.355 9.82349 98.3288 9.82349C105.303 9.82349 110.196 14.7152 110.196 21.6243V23.4623H92.035L92.0276 23.466ZM91.9833 19.7423H104.756C104.394 16.2859 102.084 13.8657 98.4139 13.8657C94.744 13.8657 92.4341 16.1102 91.9833 19.7423Z" fill="#05365F"/>
<path d="M119.291 23.466C119.653 26.8308 121.826 29.1192 125.858 29.1192C128.623 29.1192 130.748 27.9073 131.838 26.201H137.138C135.597 30.1957 131.251 33.2896 125.862 33.2896C118.164 33.2896 113.681 28.2185 113.681 21.5327C113.681 14.847 118.618 9.82349 125.592 9.82349C132.566 9.82349 137.459 14.7152 137.459 21.6243V23.4623H119.298L119.291 23.466ZM119.247 19.7423H132.019C131.657 16.2859 129.347 13.8657 125.677 13.8657C122.007 13.8657 119.698 16.1102 119.247 19.7423Z" fill="#05365F"/>
<path d="M155.975 15.7953H154.752C150.176 15.7953 148.048 18.4426 148.048 22.796V32.7551H142.341V10.3654H147.867V15.2095C148.953 11.6653 151.987 10.186 155.975 10.186V15.7953Z" fill="#05365F"/>
<path d="M5.08534 44.3618V49.0118H4.36836V48.0745C4.08379 48.5944 3.35573 49.1253 2.40223 49.1253C0.964588 49.1253 0 47.972 0 46.6868C0 45.4016 0.964588 44.2483 2.40593 44.2483C3.35943 44.2483 4.10597 44.7682 4.36097 45.3064V44.3618H5.08534ZM2.52789 48.5212C3.43334 48.5212 4.3388 47.8585 4.3388 46.6868C4.3388 45.5151 3.43334 44.8524 2.52789 44.8524C1.44134 44.8524 0.742844 45.6946 0.742844 46.6868C0.742844 47.679 1.43764 48.5212 2.52789 48.5212Z" fill="#05365F"/>
<path d="M11.1463 45.852H10.422C10.1559 45.2955 9.61261 44.8597 8.78107 44.8597C7.66496 44.8597 7.0145 45.7385 7.0145 46.6831C7.0145 47.6278 7.66496 48.5065 8.78107 48.5065C9.63848 48.5065 10.1559 48.0818 10.422 47.5143H11.1463C10.8396 48.4223 9.9711 49.1217 8.78846 49.1217C7.26212 49.1217 6.27905 48.0159 6.27905 46.6831C6.27905 45.3504 7.26212 44.2446 8.78846 44.2446C9.9711 44.2446 10.8396 44.944 11.1463 45.852Z" fill="#05365F"/>
<path d="M16.8415 45.852H16.1171C15.851 45.2955 15.3077 44.8597 14.4762 44.8597C13.3601 44.8597 12.7096 45.7385 12.7096 46.6831C12.7096 47.6278 13.3601 48.5065 14.4762 48.5065C15.3336 48.5065 15.851 48.0818 16.1171 47.5143H16.8415C16.5347 48.4223 15.6662 49.1217 14.4836 49.1217C12.9572 49.1217 11.9742 48.0159 11.9742 46.6831C11.9742 45.3504 12.9572 44.2446 14.4836 44.2446C15.6662 44.2446 16.5347 44.944 16.8415 45.852Z" fill="#05365F"/>
<path d="M17.6693 46.6868C17.6693 45.409 18.6524 44.2483 20.2083 44.2483C21.7642 44.2483 22.7473 45.4126 22.7473 46.6868C22.7473 47.961 21.7642 49.1253 20.2083 49.1253C18.6524 49.1253 17.6693 47.961 17.6693 46.6868ZM18.3937 46.6868C18.3937 47.6314 19.0811 48.5102 20.2046 48.5102C21.3281 48.5102 22.0192 47.6314 22.0192 46.6868C22.0192 45.7422 21.3429 44.8634 20.2046 44.8634C19.0663 44.8634 18.3937 45.7531 18.3937 46.6868Z" fill="#05365F"/>
<path d="M27.4483 44.3618H28.1911V49.0118H27.4741V48.1038C27.1969 48.7555 26.5687 49.1253 25.7371 49.1253C24.5914 49.1253 23.8856 48.2356 23.8856 47.0273V44.3618H24.6284V46.9065C24.6284 47.8219 25.0091 48.4846 25.9626 48.4846C26.8422 48.4846 27.4409 47.8036 27.4409 46.9248V44.3618H27.4483Z" fill="#05365F"/>
<path d="M30.4603 49.0118H29.7175V44.3618H30.4344V45.2698C30.6821 44.6071 31.3584 44.2483 32.1899 44.2483C33.3356 44.2483 34.06 45.138 34.06 46.3463V49.0118H33.3171V46.4891C33.3171 45.5737 32.9143 44.911 31.9608 44.911C31.0812 44.911 30.464 45.592 30.464 46.4708V49.0155L30.4603 49.0118Z" fill="#05365F"/>
<path d="M35.93 42.8862H36.6728V44.3618H38.0957V44.9769H36.6728V47.5765C36.6728 48.2209 36.8835 48.5029 37.4748 48.5029C37.6928 48.5029 37.8665 48.4662 38.0366 48.4186V49.0155C37.9035 49.074 37.5783 49.129 37.3122 49.129C36.2146 49.129 35.93 48.4662 35.93 47.3422V44.9806H34.9654V44.3654H35.93V42.8899V42.8862Z" fill="#05365F"/>
<path d="M43.8462 44.3618V49.0118H43.1293V48.0745C42.8447 48.5944 42.1166 49.1253 41.1631 49.1253C39.7218 49.1253 38.7572 47.972 38.7572 46.6868C38.7572 45.4016 39.7218 44.2483 41.1631 44.2483C42.1166 44.2483 42.8632 44.7682 43.1182 45.3064V44.3618H43.8425H43.8462ZM41.2888 48.5212C42.1942 48.5212 43.0997 47.8585 43.0997 46.6868C43.0997 45.5151 42.1942 44.8524 41.2888 44.8524C40.2022 44.8524 39.5037 45.6946 39.5037 46.6868C39.5037 47.679 40.1985 48.5212 41.2888 48.5212Z" fill="#05365F"/>
<path d="M46.1155 49.0118H45.3726V44.3618H46.0896V45.2698C46.3372 44.6071 47.0135 44.2483 47.8451 44.2483C48.9908 44.2483 49.7151 45.138 49.7151 46.3463V49.0118H48.9723V46.4891C48.9723 45.5737 48.5694 44.911 47.6159 44.911C46.7363 44.911 46.1192 45.592 46.1192 46.4708V49.0155L46.1155 49.0118Z" fill="#05365F"/>
<path d="M51.5851 42.8862H52.328V44.3618H53.7508V44.9769H52.328V47.5765C52.328 48.2209 52.5386 48.5029 53.1299 48.5029C53.348 48.5029 53.5217 48.4662 53.6917 48.4186V49.0155C53.5587 49.074 53.2334 49.129 52.9673 49.129C51.8697 49.129 51.5851 48.4662 51.5851 47.3422V44.9806H50.6205V44.3654H51.5851V42.8899V42.8862Z" fill="#05365F"/>
<path d="M55.0924 47.6864C55.1959 48.2429 55.6172 48.5761 56.2566 48.5761C56.8959 48.5761 57.3246 48.2539 57.3246 47.7523C57.3246 47.3459 57.0659 47.1298 56.6077 46.9944L55.8427 46.7783C55.1552 46.5879 54.6415 46.2511 54.6415 45.5225C54.6415 44.7572 55.2994 44.2446 56.1974 44.2446C57.0955 44.2446 57.6573 44.7829 57.7607 45.5481H57.1103C57.0622 45.1527 56.7777 44.7902 56.1937 44.7902C55.669 44.7902 55.3252 45.0648 55.3252 45.5005C55.3252 45.9362 55.5839 46.057 56.0422 46.1925L56.8922 46.4378C57.6092 46.6465 58.0084 47.042 58.0084 47.7047C58.0084 48.5724 57.1694 49.1217 56.2418 49.1217C55.3142 49.1217 54.5639 48.6566 54.4272 47.6827H55.085L55.0924 47.6864Z" fill="#05365F"/>
<path d="M66.4272 49.0119L65.6622 48.027C65.2039 48.6788 64.4796 49.1438 63.515 49.1438C62.1993 49.1438 61.2643 48.265 61.2643 47.0751C61.2643 45.8851 62.1993 45.1638 63.26 44.8928L61.353 42.425V42.3958H65.677V42.9999H62.6613L65.6179 46.8847L66.2868 45.4274H67.0112L66.0392 47.4595L67.2144 49.0083H66.4309L66.4272 49.0119ZM65.2926 47.5291L63.6037 45.3469C62.6687 45.6508 61.9702 46.1048 61.9702 47.097C61.9702 47.9868 62.628 48.5616 63.5556 48.5616C64.4057 48.5616 64.9305 48.1259 65.2926 47.5327V47.5291Z" fill="#05365F"/>
<path d="M71.3204 45.3065C71.5791 44.7683 72.3035 44.2484 73.257 44.2484C74.6983 44.2484 75.6629 45.4017 75.6629 46.6869C75.6629 47.9721 74.6983 49.1254 73.257 49.1254C72.3035 49.1254 71.5791 48.5945 71.2908 48.0746V49.0119H70.5739V42.1101H71.3167V45.3065H71.3204ZM73.1313 44.8525C72.2258 44.8525 71.3204 45.5152 71.3204 46.6869C71.3204 47.8585 72.2258 48.5213 73.1313 48.5213C74.2179 48.5213 74.9163 47.6791 74.9163 46.6869C74.9163 45.6946 74.2215 44.8525 73.1313 44.8525Z" fill="#05365F"/>
<path d="M77.2557 46.987C77.3703 47.95 78.0207 48.5578 79.0038 48.5578C79.7393 48.5578 80.301 48.2063 80.5782 47.7633H81.2841C80.9293 48.5285 80.0719 49.1253 79.0112 49.1253C77.4664 49.1253 76.5203 48.0269 76.5203 46.6868C76.5203 45.3467 77.5329 44.2483 78.9742 44.2483C80.4156 44.2483 81.3876 45.3064 81.3876 46.6392V46.9907H77.2557V46.987ZM77.2446 46.4195H80.6891C80.6114 45.4932 79.9943 44.7938 78.9816 44.7938C78.0466 44.7938 77.3407 45.4383 77.2446 46.4195Z" fill="#05365F"/>
<path d="M82.5776 49.0119V42.1101H83.3205V49.0119H82.5776Z" fill="#05365F"/>
<path d="M89.5995 44.3618V49.0118H88.8826V48.0745C88.598 48.5944 87.8699 49.1253 86.9164 49.1253C85.4751 49.1253 84.5105 47.972 84.5105 46.6868C84.5105 45.4016 85.4751 44.2483 86.9164 44.2483C87.8699 44.2483 88.6165 44.7682 88.8715 45.3064V44.3618H89.5958H89.5995ZM87.0421 48.5212C87.9475 48.5212 88.853 47.8585 88.853 46.6868C88.853 45.5151 87.9475 44.8524 87.0421 44.8524C85.9555 44.8524 85.257 45.6946 85.257 46.6868C85.257 47.679 85.9518 48.5212 87.0421 48.5212Z" fill="#05365F"/>
<path d="M91.4215 47.6864C91.525 48.2429 91.9463 48.5761 92.5857 48.5761C93.225 48.5761 93.6537 48.2539 93.6537 47.7523C93.6537 47.3459 93.395 47.1298 92.9368 46.9944L92.1717 46.7783C91.4843 46.5879 90.9706 46.2511 90.9706 45.5225C90.9706 44.7572 91.6285 44.2446 92.5265 44.2446C93.4246 44.2446 93.9864 44.7829 94.0898 45.5481H93.4394C93.3913 45.1527 93.1068 44.7902 92.5228 44.7902C91.9981 44.7902 91.6543 45.0648 91.6543 45.5005C91.6543 45.9362 91.9131 46.057 92.3713 46.1925L93.2213 46.4378C93.9383 46.6465 94.3375 47.042 94.3375 47.7047C94.3375 48.5724 93.4985 49.1217 92.5709 49.1217C91.6433 49.1217 90.893 48.6566 90.7563 47.6827H91.4141L91.4215 47.6864Z" fill="#05365F"/>
<path d="M95.7899 42.8862H96.5327V44.3618H97.9555V44.9769H96.5327V47.5765C96.5327 48.2209 96.7433 48.5029 97.3347 48.5029C97.5527 48.5029 97.7264 48.4662 97.8964 48.4186V49.0155C97.7634 49.074 97.4381 49.129 97.1721 49.129C96.0744 49.129 95.7899 48.4662 95.7899 47.3422V44.9806H94.8253V44.3654H95.7899V42.8899V42.8862Z" fill="#05365F"/>
<path d="M99.408 42.2896C99.6926 42.2896 99.8958 42.4983 99.8958 42.7619C99.8958 43.0255 99.6963 43.2342 99.408 43.2342C99.1197 43.2342 98.9202 43.0255 98.9202 42.7619C98.9202 42.4983 99.1197 42.2896 99.408 42.2896ZM99.0347 49.0119V44.3619H99.7776V49.0119H99.0347Z" fill="#05365F"/>
<path d="M102.076 49.0118H101.333V44.3618H102.05V45.2698C102.298 44.6071 102.974 44.2483 103.806 44.2483C104.952 44.2483 105.676 45.138 105.676 46.3463V49.0118H104.933V46.4891C104.933 45.5737 104.53 44.911 103.577 44.911C102.697 44.911 102.08 45.592 102.08 46.4708V49.0155L102.076 49.0118Z" fill="#05365F"/>
<path d="M111.829 44.3618V48.9752C111.829 50.1761 110.791 51.0915 109.357 51.0915C108.27 51.0915 107.317 50.5826 106.925 49.5793H107.661C107.945 50.1761 108.577 50.5167 109.361 50.5167C110.41 50.5167 111.087 49.9418 111.087 48.9862V47.8438C110.82 48.4113 110.085 48.8946 109.168 48.8946C107.727 48.8946 106.822 47.8255 106.822 46.577C106.822 45.3284 107.727 44.252 109.168 44.252C110.122 44.252 110.857 44.7536 111.098 45.3394V44.3655H111.833L111.829 44.3618ZM109.301 48.2759C110.207 48.2759 111.087 47.6314 111.087 46.5733C111.087 45.5151 110.207 44.8634 109.301 44.8634C108.222 44.8634 107.553 45.5994 107.553 46.5733C107.553 47.5472 108.222 48.2759 109.301 48.2759Z" fill="#05365F"/>
<path d="M118.105 44.3618V49.0118H117.388V48.0745C117.103 48.5944 116.375 49.1253 115.422 49.1253C113.98 49.1253 113.016 47.972 113.016 46.6868C113.016 45.4016 113.98 44.2483 115.422 44.2483C116.375 44.2483 117.122 44.7682 117.377 45.3064V44.3618H118.101H118.105ZM115.547 48.5212C116.453 48.5212 117.362 47.8585 117.362 46.6868C117.362 45.5151 116.456 44.8524 115.547 44.8524C114.461 44.8524 113.762 45.6946 113.762 46.6868C113.762 47.679 114.461 48.5212 115.547 48.5212Z" fill="#05365F"/>
<path d="M123.637 42.1101H124.38V49.0119H123.663V48.0746C123.379 48.5945 122.651 49.1254 121.697 49.1254C120.256 49.1254 119.291 47.9721 119.291 46.6869C119.291 45.4017 120.256 44.2484 121.697 44.2484C122.651 44.2484 123.375 44.7683 123.634 45.3065V42.1101H123.637ZM121.823 48.5213C122.728 48.5213 123.637 47.8585 123.637 46.6869C123.637 45.5152 122.732 44.8525 121.823 44.8525C120.736 44.8525 120.038 45.6946 120.038 46.6869C120.038 47.6791 120.736 48.5213 121.823 48.5213Z" fill="#05365F"/>
<path d="M129.21 44.3618H129.964L127.95 49.0118H127.34L125.326 44.3618H126.08L127.643 48.1441L129.207 44.3618H129.21Z" fill="#05365F"/>
<path d="M131.306 42.2896C131.591 42.2896 131.794 42.4983 131.794 42.7619C131.794 43.0255 131.594 43.2342 131.306 43.2342C131.018 43.2342 130.818 43.0255 130.818 42.7619C130.818 42.4983 131.018 42.2896 131.306 42.2896ZM130.933 49.0119V44.3619H131.676V49.0119H130.933Z" fill="#05365F"/>
<path d="M133.531 47.6864C133.634 48.2429 134.056 48.5761 134.695 48.5761C135.334 48.5761 135.763 48.2539 135.763 47.7523C135.763 47.3459 135.504 47.1298 135.046 46.9944L134.281 46.7783C133.594 46.5879 133.08 46.2511 133.08 45.5225C133.08 44.7572 133.738 44.2446 134.636 44.2446C135.534 44.2446 136.096 44.7829 136.199 45.5481H135.549C135.501 45.1527 135.216 44.7902 134.632 44.7902C134.107 44.7902 133.764 45.0648 133.764 45.5005C133.764 45.9362 134.022 46.057 134.481 46.1925L135.331 46.4378C136.048 46.6465 136.447 47.042 136.447 47.7047C136.447 48.5724 135.608 49.1217 134.68 49.1217C133.753 49.1217 133.002 48.6566 132.866 47.6827H133.523L133.531 47.6864Z" fill="#05365F"/>
<path d="M137.984 46.987C138.099 47.95 138.749 48.5578 139.732 48.5578C140.468 48.5578 141.029 48.2063 141.307 47.7633H142.012C141.658 48.5285 140.8 49.1253 139.74 49.1253C138.195 49.1253 137.249 48.0269 137.249 46.6868C137.249 45.3467 138.261 44.2483 139.703 44.2483C141.144 44.2483 142.116 45.3064 142.116 46.6392V46.9907H137.984V46.987ZM137.973 46.4195H141.417C141.34 45.4932 140.723 44.7938 139.71 44.7938C138.775 44.7938 138.069 45.4383 137.973 46.4195Z" fill="#05365F"/>
<path d="M146.821 44.3618H147.563V49.0118H146.846V48.1038C146.569 48.7555 145.941 49.1253 145.11 49.1253C143.964 49.1253 143.258 48.2356 143.258 47.0273V44.3618H144.001V46.9065C144.001 47.8219 144.381 48.4846 145.335 48.4846C146.215 48.4846 146.813 47.8036 146.813 46.9248V44.3618H146.821Z" fill="#05365F"/>
<path d="M151.695 45.0209H151.496C150.465 45.0209 149.836 45.7129 149.836 46.8076V49.0118H149.094V44.3618H149.81V45.5152C150.04 44.673 150.775 44.3252 151.699 44.3252V45.0245L151.695 45.0209Z" fill="#05365F"/>
<path d="M152.908 47.6864C153.011 48.2429 153.432 48.5761 154.072 48.5761C154.711 48.5761 155.14 48.2539 155.14 47.7523C155.14 47.3459 154.881 47.1298 154.423 46.9944L153.658 46.7783C152.97 46.5879 152.457 46.2511 152.457 45.5225C152.457 44.7572 153.115 44.2446 154.013 44.2446C154.911 44.2446 155.472 44.7829 155.576 45.5481H154.925C154.877 45.1527 154.593 44.7902 154.009 44.7902C153.484 44.7902 153.14 45.0648 153.14 45.5005C153.14 45.9362 153.399 46.057 153.857 46.1925L154.707 46.4378C155.424 46.6465 155.823 47.042 155.823 47.7047C155.823 48.5724 154.985 49.1217 154.057 49.1217C153.129 49.1217 152.379 48.6566 152.242 47.6827H152.9L152.908 47.6864Z" fill="#05365F"/>
</g>
<defs>
<clipPath id="clip0_1_2279">
<rect width="220" height="51" fill="white"/>
</clipPath>
</defs>
</svg>
