<?xml version="1.0" encoding="UTF-8" standalone="no"?>
<!-- Created with Inkscape (http://www.inkscape.org/) -->

<svg
   version="1.1"
   id="svg2"
   width="686.01331"
   height="457.74667"
   viewBox="0 0 686.01331 457.74667"
   sodipodi:docname="Mak black EPS.eps"
   xmlns:inkscape="http://www.inkscape.org/namespaces/inkscape"
   xmlns:sodipodi="http://sodipodi.sourceforge.net/DTD/sodipodi-0.dtd"
   xmlns="http://www.w3.org/2000/svg"
   xmlns:svg="http://www.w3.org/2000/svg">
  <defs
     id="defs6" />
  <sodipodi:namedview
     id="namedview4"
     pagecolor="#ffffff"
     bordercolor="#000000"
     borderopacity="0.25"
     inkscape:showpageshadow="2"
     inkscape:pageopacity="0.0"
     inkscape:pagecheckerboard="0"
     inkscape:deskcolor="#d1d1d1" />
  <g
     id="g8"
     inkscape:groupmode="layer"
     inkscape:label="ink_ext_XXXXXX"
     transform="matrix(1.3333333,0,0,-1.3333333,0,457.74667)">
    <g
       id="g10"
       transform="scale(0.1)">
      <path
         d="m 4579.71,2648.04 c 162.89,137.55 325.86,275.18 491.6,415.14 -5.73,0 -7.56,0 -9.4,0 -161.91,0 -323.82,-0.05 -485.73,0.18 -7.12,0 -11.96,-2.82 -17.01,-6.98 -124.68,-102.98 -249.42,-205.89 -374.16,-308.8 -16.79,-13.85 -33.65,-27.61 -52.4,-42.98 0,5.87 0,9.3 0,12.73 0,235.01 0,470.01 0.03,705.01 0,3.58 0.37,7.15 0.56,10.73 -1.6,0 -3.2,0 -4.8,0 -106.34,0 -212.68,0 -319.02,0 -27.19,0 -54.37,0 -81.56,0 -7.2,0 -14.39,0 -21.59,0 -0.24,-3.95 -0.7,-7.9 -0.7,-11.86 -0.04,-436.43 0,-872.86 -0.27,-1309.3 0,-9.77 1.98,-12.45 12.17,-12.42 136.72,0.39 273.45,0.37 410.17,0.03 9.84,-0.03 12.5,2.23 12.46,12.32 -0.4,112.7 -0.19,225.41 -0.39,338.12 -0.02,7.3 1.78,12.56 7.18,17.76 19.27,18.59 38.43,37.33 56.71,56.88 7.28,7.79 10.92,7.36 18.29,-0.03 134.87,-135.34 270.08,-270.34 405.14,-405.5 4.95,-4.96 9.64,-8.26 17.41,-8.25 153.52,0.27 307.03,0.19 460.55,0.29 2.76,0 6.37,-1.82 8.91,2.94 -177.92,177.87 -355.96,355.85 -534.15,533.99"
         style="fill:#231f20;fill-opacity:1;fill-rule:nonzero;stroke:none"
         id="path12" />
      <path
         d="m 467.953,3019.11 c 36.817,18.74 71.594,36.39 106.324,54.13 113.5,57.98 233.586,83.94 361.051,74.92 97.842,-6.92 189.712,-33.97 275.772,-80.75 7.19,-3.91 11.87,-2.96 18.17,1.32 36.03,24.42 72.35,48.43 108.58,72.56 3.57,2.37 7.24,4.59 10.84,6.87 3.86,-3.34 2.3,-7.16 2.31,-10.44 0.14,-31.57 0.41,-63.15 -0.11,-94.71 -0.16,-9.97 0.59,-12.81 11.89,-8.87 59.57,20.75 116.86,47.07 175.36,70.32 177.34,70.46 351.95,60.41 522.17,-25.5 7.8,-3.94 13.23,-3.79 20.66,0.68 34.88,20.98 70.17,41.29 105.32,61.82 4.44,2.6 8.94,5.1 14.66,8.35 0,-225.78 0,-450.29 0,-676.38 -196.28,90.83 -391.95,181.39 -589.06,272.61 22.57,18.1 44.26,35.52 65.97,52.91 12.47,9.99 24.82,20.14 37.54,29.81 4.89,3.72 4.61,5.86 0.23,9.87 -58.09,53.16 -126.16,77.03 -204.58,68.17 -58.83,-6.65 -111.07,-30.6 -159.12,-64.59 -8.34,-5.91 -11.77,-12.12 -11.4,-22.6 3.64,-103.34 6.71,-206.69 10.01,-310.03 0.82,-25.83 0.93,-25.82 -22.11,-16.12 -195.11,82.17 -390.215,164.34 -585.317,246.51 -4.347,1.83 -8.652,3.77 -14.3,6.23 24.117,19.32 47.433,37.99 70.742,56.66 10.601,8.5 20.957,17.32 31.879,25.37 5.445,4.01 5.504,6.78 1.781,12.31 -42.727,63.44 -116.637,94.18 -191.832,80.48 -59.438,-10.84 -108.82,-39.75 -152.067,-80.79 -5.222,-4.95 -4.914,-10.39 -4.914,-16.33 0.004,-153.85 0.004,-307.7 0.004,-461.55 0,-86.72 -0.242,-173.44 0.289,-260.15 0.071,-11.47 -3.558,-13.66 -14.109,-13.63 -142.305,0.31 -284.609,0.32 -426.9102,-0.03 -10.0586,-0.02 -12.4805,2.65 -12.4727,12.54 0.2578,356.46 0.2617,712.91 -0.0039,1069.37 -0.0078,10 2.5899,12.48 12.5547,12.46 134.7071,-0.36 269.4181,-0.24 404.1251,-0.24 16.516,0 16.367,-0.01 16.73,-17.22 1.024,-47.89 2.18,-95.78 3.344,-146.34"
         style="fill:#f49f13;fill-opacity:1;fill-rule:nonzero;stroke:none"
         id="path14" />
      <path
         d="m 3171.48,2452.6 c 0.14,0 0.28,0 0.43,0 0,30.36 -0.09,60.72 0.08,91.09 0.03,5.6 -0.5,8.4 -7.65,7.72 -19.44,-1.86 -39,-2.52 -58.5,-3.96 -71.17,-5.27 -142.28,-11.54 -213.52,-15.7 -46.41,-2.72 -87.87,-17.96 -125.84,-43.44 -35.85,-24.05 -52.16,-58.49 -48.19,-101.48 4.05,-43.85 28.4,-73.55 68.37,-90.16 55.29,-22.99 113.39,-28.7 172.47,-23.44 67.87,6.03 130.91,28.8 191.65,58.75 14.09,6.95 20.86,17.53 20.75,33.14 -0.19,29.16 -0.05,58.32 -0.05,87.48 z m 2.23,-271.51 c -52.83,-19.04 -104.07,-38.38 -155.9,-55.99 -104.03,-35.35 -210.66,-56.46 -321.07,-54.82 -101.17,1.5 -199.03,19.77 -289.94,65.13 -80.49,40.16 -132.74,104.85 -150.13,194.21 -15.33,78.81 4.83,150.01 52.56,213.77 51.09,68.24 119.69,107.47 202.75,124.69 89.05,18.46 178.58,33.32 269.02,42.55 66.68,6.8 133.6,10.62 200.58,13.43 59.77,2.5 119.52,5.65 179.29,8.48 10.04,0.47 14.32,3.33 11.7,15.27 -15.05,68.78 -60.13,108.56 -124.49,128.83 -43.56,13.72 -88.98,17.46 -134.45,19.91 -105.33,5.67 -208.01,-11.41 -310.07,-34.86 -69.78,-16.02 -139.78,-31.03 -209.63,-46.74 -8.76,-1.97 -11.49,-0.4 -11.43,9.36 0.43,73.92 0.32,147.85 0.11,221.77 -0.02,6.98 1.11,10.45 9.17,11.57 65.9,9.16 131.26,22.11 197.66,27.74 93.8,7.94 187.71,14.15 281.8,17.58 95.49,3.49 190.71,1.66 285.67,-10.11 73.56,-9.12 147.29,-18.24 218.94,-36.95 71.71,-18.73 136.69,-53.14 190.16,-105.42 46.57,-45.53 69.28,-102.94 70.24,-167.64 2.51,-169.77 0.12,-339.56 -0.24,-509.35 -0.12,-53.1 -1.14,-106.19 -1.72,-159.29 -0.16,-14.83 -1.91,-16.68 -16.34,-16.68 -144.29,-0.01 -288.59,0.1 -432.88,-0.24 -9.62,-0.03 -11.84,2.65 -11.58,11.82 0.65,23.55 0.22,47.13 0.22,71.98"
         style="fill:#151311;fill-opacity:1;fill-rule:nonzero;stroke:none"
         id="path16" />
      <path
         d="m 1703.72,2605.24 c 33.49,-14.6 65.44,-28.58 97.42,-42.46 124.26,-53.93 248.5,-107.9 372.85,-161.62 7.9,-3.42 11.18,-7.38 11.14,-16.63 -0.43,-91.09 -0.42,-182.19 -0.03,-273.28 0.04,-9.5 -2.5,-11.73 -11.83,-11.71 -153.06,0.3 -306.13,0.26 -459.19,0.07 -7.45,-0.01 -11.04,0.43 -11.02,9.79 0.34,163.01 0.24,326.03 0.26,489.04 0,1.58 0.18,3.17 0.4,6.8"
         style="fill:#151311;fill-opacity:1;fill-rule:nonzero;stroke:none"
         id="path18" />
      <path
         d="m 848.645,2351.64 c 0,80.72 0.183,161.44 -0.223,242.16 -0.051,10.59 2.453,10.96 11.207,7.16 153.081,-66.44 306.241,-132.71 459.561,-198.63 8.06,-3.46 10.14,-7.5 10.12,-15.7 -0.28,-91.91 -0.36,-183.82 0.09,-275.72 0.05,-9.9 -3.13,-11.36 -11.94,-11.34 -152.28,0.25 -304.57,0.3 -456.858,-0.08 -10.141,-0.02 -12.258,2.58 -12.207,12.4 0.441,79.92 0.25,159.84 0.25,239.75"
         style="fill:#151311;fill-opacity:1;fill-rule:nonzero;stroke:none"
         id="path20" />
      <path
         d="M 4263.62,881.449 V 667.578 l 213.87,213.871 z"
         style="fill:#f7a491;fill-opacity:1;fill-rule:nonzero;stroke:none"
         id="path22" />
      <path
         d="m 4263.62,151.238 h 213.87 l -213.87,213.871 z"
         style="fill:#f7a491;fill-opacity:1;fill-rule:nonzero;stroke:none"
         id="path24" />
      <path
         d="M 4993.83,881.449 H 4779.95 L 4993.83,667.578 Z"
         style="fill:#f7a491;fill-opacity:1;fill-rule:nonzero;stroke:none"
         id="path26" />
      <path
         d="M 4993.83,365.109 4779.96,151.238 h 213.87 z"
         style="fill:#f7a491;fill-opacity:1;fill-rule:nonzero;stroke:none"
         id="path28" />
      <path
         d="m 4628.72,0 151.24,151.238 h -302.47 z"
         style="fill:#ef6757;fill-opacity:1;fill-rule:nonzero;stroke:none"
         id="path30" />
      <path
         d="M 4112.38,516.34 4263.62,365.109 V 667.578 Z"
         style="fill:#ef6757;fill-opacity:1;fill-rule:nonzero;stroke:none"
         id="path32" />
      <path
         d="M 4628.72,1032.68 4477.49,881.449 h 302.46 z"
         style="fill:#ef6757;fill-opacity:1;fill-rule:nonzero;stroke:none"
         id="path34" />
      <path
         d="M 5145.06,516.34 4993.83,667.578 V 365.109 Z"
         style="fill:#ef6757;fill-opacity:1;fill-rule:nonzero;stroke:none"
         id="path36" />
      <path
         d="M 4993.83,667.578 4779.95,881.449 H 4477.49 L 4263.62,667.578 V 365.109 l 213.87,-213.871 h 302.47 l 213.87,213.871 v 302.469"
         style="fill:#e92d34;fill-opacity:1;fill-rule:nonzero;stroke:none"
         id="path38" />
      <path
         d="m 4342.77,517.191 v 0 c 0,16.45 13.33,29.789 29.78,29.789 h 515.75 c 16.45,0 29.78,-13.339 29.78,-29.789 v 0 c 0,-16.453 -13.33,-29.781 -29.78,-29.781 h -515.75 c -16.45,0 -29.78,13.328 -29.78,29.781"
         style="fill:#231f20;fill-opacity:1;fill-rule:nonzero;stroke:none"
         id="path40" />
      <path
         d="m 4630.43,229.531 v 0 c -16.46,0 -29.79,13.34 -29.79,29.789 v 515.75 c 0,16.45 13.33,29.782 29.79,29.782 v 0 c 16.45,0 29.78,-13.332 29.78,-29.782 V 259.32 c 0,-16.449 -13.33,-29.789 -29.78,-29.789"
         style="fill:#ffffff;fill-opacity:1;fill-rule:nonzero;stroke:none"
         id="path42" />
      <path
         d="m 4427.02,313.789 v 0 c -11.63,11.633 -11.63,30.492 0,42.121 l 364.69,364.692 c 11.63,11.628 30.49,11.628 42.12,0 v 0 c 11.63,-11.633 11.63,-30.493 0,-42.133 l -364.69,-364.68 c -11.63,-11.629 -30.49,-11.629 -42.12,0"
         style="fill:#ffffff;fill-opacity:1;fill-rule:nonzero;stroke:none"
         id="path44" />
      <path
         d="m 4342.77,517.191 v 0 c 0,16.45 13.33,29.789 29.78,29.789 h 515.75 c 16.45,0 29.78,-13.339 29.78,-29.789 v 0 c 0,-16.453 -13.33,-29.781 -29.78,-29.781 h -515.75 c -16.45,0 -29.78,13.328 -29.78,29.781"
         style="fill:#ffffff;fill-opacity:1;fill-rule:nonzero;stroke:none"
         id="path46" />
      <path
         d="m 4427.02,720.602 v 0 c 11.63,11.628 30.49,11.628 42.12,0 L 4833.83,355.91 c 11.63,-11.629 11.63,-30.488 0,-42.121 v 0 c -11.63,-11.629 -30.49,-11.629 -42.12,0 l -364.69,364.68 c -11.63,11.64 -11.63,30.5 0,42.133"
         style="fill:#ffffff;fill-opacity:1;fill-rule:nonzero;stroke:none"
         id="path48" />
      <path
         d="m 185.188,648.66 c -17.063,10.551 -41.157,17.57 -66.247,17.57 -39.148,0 -63.234,-21.582 -63.234,-45.171 0,-25.098 9.0352,-36.129 69.254,-56.707 48.184,-16.063 58.723,-38.141 58.723,-65.743 0,-37.14 -32.121,-71.769 -93.8481,-71.769 C 26.5977,426.84 0,439.391 0,459.461 0,468 4.51563,472.512 12.0469,474.52 c 15.5547,-16.059 41.6562,-25.098 81.2969,-25.098 40.1522,0 59.2192,19.578 59.2192,41.66 0,21.578 -12.543,36.129 -54.7036,50.688 -56.7071,19.07 -71.7617,36.64 -71.7617,74.769 0,39.652 38.6445,74.789 98.8633,74.789 45.676,0 69.762,-12.047 69.762,-26.609 0,-8.528 -3.512,-13.039 -9.535,-16.059"
         style="fill:#231f20;fill-opacity:1;fill-rule:nonzero;stroke:none"
         id="path50" />
      <path
         d="m 417.043,450.941 c 5.02,0 15.555,2 20.07,3.5 2.512,-2 4.02,-6.519 4.02,-11.031 0,-9.039 -12.047,-16.57 -42.156,-16.57 -18.571,0 -27.606,6.031 -27.606,21.082 0,10.039 0.504,15.547 2.512,23.59 -12.551,-30.614 -44.164,-45.672 -74.278,-45.672 -33.121,0 -52.695,12.551 -46.171,54.199 l 18.57,122.461 -31.113,-1.008 c -2.512,2.508 -3.52,4.508 -3.52,8.528 0,11.539 11.543,16.062 43.664,16.062 19.07,0 24.094,-4.012 21.582,-18.57 L 283.547,475.02 c -3.012,-20.071 7.023,-25.598 29.109,-25.598 20.074,0 45.164,14.558 62.731,42.16 l 17.062,104.887 c 4.016,25.601 7.028,30.113 20.578,30.113 6.524,0 11.039,-2 14.551,-5.023 l -20.074,-124.45 c -2.008,-12.05 -4.516,-28.621 -4.516,-35.64 0,-9.028 2.008,-10.528 14.055,-10.528"
         style="fill:#231f20;fill-opacity:1;fill-rule:nonzero;stroke:none"
         id="path52" />
      <path
         d="m 601.719,604.5 c -21.078,0 -39.649,-17.059 -55.203,-47.68 l -12.547,-96.851 c 12.547,-7.528 23.086,-10.547 45.672,-10.547 45.164,0 70.757,49.187 70.757,90.84 0,40.148 -13.043,64.238 -48.679,64.238 z M 574.617,426.84 c -21.078,0 -35.633,4.019 -43.156,14.551 l -13.551,-99.36 c -2.512,-1.5 -6.527,-2.511 -13.551,-2.511 -13.554,0 -14.554,6.019 -14.554,15.062 0,10.027 2.508,28.09 4.515,41.648 l 28.106,206.27 -30.113,-1.008 c -2.508,2.508 -3.512,4.508 -3.512,8.528 0,11.539 11.543,16.062 43.66,16.062 19.07,0 24.594,-4.012 21.582,-18.57 l -6.523,-31.121 c 11.039,34.629 31.113,51.691 66.246,51.691 45.164,0 65.238,-32.121 65.238,-80.793 0,-73.269 -44.16,-120.449 -104.387,-120.449"
         style="fill:#231f20;fill-opacity:1;fill-rule:nonzero;stroke:none"
         id="path54" />
      <path
         d="m 843.609,604.5 c -21.082,0 -39.648,-17.059 -55.207,-47.68 l -12.543,-96.851 c 12.543,-7.528 23.086,-10.547 45.668,-10.547 45.168,0 70.762,49.187 70.762,90.84 0,40.148 -13.047,64.238 -48.68,64.238 z M 816.508,426.84 c -21.078,0 -35.633,4.019 -43.156,14.551 l -13.551,-99.36 c -2.512,-1.5 -6.531,-2.511 -13.551,-2.511 -13.555,0 -14.555,6.019 -14.555,15.062 0,10.027 2.508,28.09 4.516,41.648 l 28.105,206.27 -30.113,-1.008 c -2.508,2.508 -3.515,4.508 -3.515,8.528 0,11.539 11.542,16.062 43.664,16.062 19.07,0 24.593,-4.012 21.582,-18.57 l -6.524,-31.121 c 11.039,34.629 31.113,51.691 66.242,51.691 45.168,0 65.243,-32.121 65.243,-80.793 0,-73.269 -44.161,-120.449 -104.387,-120.449"
         style="fill:#231f20;fill-opacity:1;fill-rule:nonzero;stroke:none"
         id="path56" />
      <path
         d="m 1078.97,607.012 c -44.16,0 -70.76,-45.172 -70.76,-89.832 0,-47.18 16.06,-68.258 56.71,-68.258 45.67,0 70.26,47.18 70.26,90.84 0,43.668 -16.06,67.25 -56.21,67.25 z M 1056.89,425.84 c -51.69,0 -77.788,28.101 -77.788,84.808 0,70.274 43.658,118.954 106.398,118.954 57.71,0 78.29,-32.633 78.29,-82.313 0,-71.269 -38.64,-121.449 -106.9,-121.449"
         style="fill:#231f20;fill-opacity:1;fill-rule:nonzero;stroke:none"
         id="path58" />
      <path
         d="m 1361.02,598.98 c -6.53,1.008 -18.57,2 -29.61,2 -14.06,0 -37.14,-23.582 -60.73,-68.25 l -2.51,-22.582 c -2.01,-16.558 -5.02,-34.617 -7.03,-49.679 -2,-15.059 -3.51,-27.098 -3.51,-31.117 -2.51,-1.5 -6.02,-2.512 -13.55,-2.512 -13.04,0 -15.55,6.031 -15.55,15.058 0,14.051 3,28.102 5.01,41.653 l 16.56,118.949 -31.11,-1.008 c -2.51,2.508 -3.52,4.508 -3.52,8.028 0,12.039 11.55,16.562 43.67,16.562 19.07,0 24.59,-4.012 22.08,-18.57 l -10.54,-54.703 c 27.6,65.242 43.16,75.273 71.26,75.273 20.58,0 25.6,-6.523 25.6,-16.051 0,-5.519 -3.01,-10.539 -6.52,-13.051"
         style="fill:#231f20;fill-opacity:1;fill-rule:nonzero;stroke:none"
         id="path60" />
      <path
         d="m 1505.54,598.98 c -16.56,0 -33.63,0.5 -50.18,0.5 L 1442.3,493.59 c -1,-6.52 -1.5,-13.551 -1.5,-20.57 0,-19.571 7.53,-24.59 26.1,-24.59 16.56,0 36.64,9.531 50.69,17.55 5.01,-2 8.03,-5.019 8.03,-10.531 0,-26.097 -53.71,-30.617 -71.77,-30.617 -31.12,0 -45.17,11.047 -45.17,42.656 0,6.024 0.5,12.051 1.51,17.571 4.51,38.14 9.53,76.293 15.05,114.421 l -25.59,-0.5 c -2.01,2 -3.01,5.02 -3.01,8.532 0,12.047 10.54,15.058 32.11,16.058 l 4.02,38.149 c 1,10.031 6.02,19.57 17.06,19.57 5.53,0 12.05,-1.508 16.57,-4.519 l -8.04,-53.2 72.27,0.5 c 1.51,-2.511 2.51,-7.019 2.51,-9.531 0,-12.039 -7.52,-15.559 -27.6,-15.559"
         style="fill:#231f20;fill-opacity:1;fill-rule:nonzero;stroke:none"
         id="path62" />
      <path
         d="m 1678.18,608.02 c -25.09,0 -58.72,-14.059 -69.26,-62.239 11.04,-2 30.62,-3.011 44.67,-3.011 45.67,0 62.23,13.05 62.23,36.128 0,18.071 -9.54,29.122 -37.64,29.122 z m -22.58,-85.821 c -15.06,0 -32.63,1 -49.69,3.512 -0.5,-4.012 -0.5,-7.531 -0.5,-11.039 0,-44.16 18.56,-65.25 53.7,-65.25 22.08,0 44.16,4.519 65.74,14.558 3.51,-2.511 6.02,-6.519 6.02,-11.539 0,-13.562 -22.08,-27.609 -75.27,-27.609 -52.7,0 -79.8,28.109 -79.8,83.309 0,72.781 37.13,121.961 107.9,121.961 45.17,0 59.22,-20.582 59.22,-47.68 0,-39.652 -29.11,-60.223 -87.32,-60.223"
         style="fill:#231f20;fill-opacity:1;fill-rule:nonzero;stroke:none"
         id="path64" />
      <path
         d="m 1903.51,607.512 c -46.68,0 -74.28,-38.641 -74.28,-97.364 0,-42.148 10.54,-62.226 43.16,-62.226 17.06,0 41.65,12.047 54.7,31.617 l 16.06,119.941 c -11.04,5.02 -24.59,8.032 -39.64,8.032 z m 48.67,-180.672 c -16.55,0 -24.08,6.031 -24.08,24.101 0,5.008 2,17.059 3,24.079 -6.52,-32.622 -36.63,-48.68 -71.76,-48.68 -38.14,0 -61.23,22.09 -61.23,73.781 0,85.309 47.68,129.981 100.38,129.981 27.1,0 40.65,-6.532 46.17,-21.082 l 11.04,83.3 c 3.01,22.59 6.02,28.621 19.57,28.621 6.02,0 10.54,-1.011 14.05,-3.519 l -25.09,-187.703 c -4.02,-33.117 -8.03,-60.219 -8.03,-68.25 0,-9.028 2.01,-10.528 14.05,-10.528 5.02,0 15.56,2 20.08,3.5 2.51,-2 4.01,-6.519 4.01,-11.031 0,-9.039 -12.05,-16.57 -42.16,-16.57"
         style="fill:#231f20;fill-opacity:1;fill-rule:nonzero;stroke:none"
         id="path66" />
      <path
         d="m 2261.82,604 c -21.58,0 -39.65,-16.559 -55.2,-47.672 l -11.04,-84.816 c -1.51,-13.051 13.04,-24.09 43.66,-24.09 46.17,0 71.26,50.68 71.26,92.34 0,42.16 -13.55,64.238 -48.68,64.238 z M 2229.7,425.84 c -38.64,0 -64.74,20.082 -64.74,41.648 0,7.532 1.01,16.563 2.51,26.602 l 27.1,198.23 c 3.52,22.59 6.52,28.621 20.08,28.621 6.52,0 9.53,-1.011 13.55,-3.519 L 2210.63,584.93 c 10.54,25.601 27.1,42.66 63.24,42.66 45.16,0 65.24,-31.121 65.24,-80.301 0,-73.777 -41.16,-121.449 -109.41,-121.449"
         style="fill:#231f20;fill-opacity:1;fill-rule:nonzero;stroke:none"
         id="path68" />
      <path
         d="m 2378.25,339.012 c -23.59,0 -27.61,7.027 -27.61,16.066 0,3.512 1.01,7.531 4.52,10.531 4.52,-0.488 9.03,-0.488 13.05,-0.488 22.58,0 34.12,5.008 41.65,10.527 13.55,10.043 17.07,25.602 29.61,45.68 l -29.1,181.172 -22.59,-0.512 c -2.51,2.012 -3.51,4.524 -3.51,8.032 0,10.539 7.02,16.062 31.61,16.062 19.08,0 21.59,-4.012 24.1,-18.57 l 25.09,-155.582 c 63.74,80.8 74.28,92.351 74.28,132.492 0,16.558 -1.51,31.117 -3.02,42.16 3.02,2.008 7.53,3.02 12.55,3.02 15.55,0 20.57,-12.051 20.57,-35.141 0,-51.191 -9.53,-67.25 -85.82,-155.07 -16.05,-18.571 -29.1,-41.153 -40.64,-62.731 -14.56,-27.101 -36.14,-37.648 -64.74,-37.648"
         style="fill:#231f20;fill-opacity:1;fill-rule:nonzero;stroke:none"
         id="path70" />
      <path
         d="m 2888,517.512 h -80.68 l 51.81,101.898 z m 106.46,-82.231 -3.08,2.469 -17.99,-1.422 -82.57,268.914 -4.43,1.789 c -4.52,1.809 -11.18,2.449 -15.91,2.449 -15.01,0 -21.14,-6.351 -28.57,-19.832 L 2708.16,435.441 c -5.7,-9.703 -9.5,-17.73 -9.5,-25.371 0,-6.672 2.44,-22.179 25.09,-22.179 4.89,0 8.81,0.781 11.96,1.41 l 7.4,1.281 42.99,83.719 h 114.54 l 19.41,-67.621 c 5.09,-17.34 16.98,-18.789 28.73,-18.789 35.51,0 53.51,10 53.51,29.73 0,9.438 -4.26,14.82 -7.83,17.66"
         style="fill:#231f20;fill-opacity:1;fill-rule:nonzero;stroke:none"
         id="path72" />
      <path
         d="m 3168.74,712.969 c -70.84,0 -124.26,-41.457 -124.26,-96.43 0,-49.75 21.81,-73.051 89.68,-95.867 52.12,-17.992 56.48,-34.133 56.48,-49.121 0,-23.172 -22.93,-38.141 -58.43,-38.141 -40.9,0 -70.1,8.731 -86.78,25.949 l -4.09,4.231 -5.68,-1.52 c -13.76,-3.672 -21.33,-13.281 -21.33,-27.058 0,-47.703 85.66,-47.703 113.81,-47.703 81.39,0 118.46,48.179 118.46,92.941 0,42.449 -22.34,68.012 -74.63,85.441 -70.31,24.02 -73.27,34.551 -73.27,56.079 0,20.449 22.11,42.191 63.09,42.191 25.58,0 52.24,-7.031 71.3,-18.813 l 4.74,-2.929 4.98,2.492 c 11.15,5.578 16.56,14.578 16.56,27.508 0,25.133 -34.73,40.75 -90.63,40.75"
         style="fill:#231f20;fill-opacity:1;fill-rule:nonzero;stroke:none"
         id="path74" />
      <path
         d="m 3427.42,712.969 c -70.84,0 -124.26,-41.457 -124.26,-96.43 0,-49.75 21.81,-73.051 89.68,-95.867 52.12,-17.992 56.49,-34.133 56.49,-49.121 0,-23.172 -22.94,-38.141 -58.44,-38.141 -40.9,0 -70.1,8.731 -86.78,25.949 l -4.09,4.231 -5.68,-1.52 c -13.75,-3.672 -21.33,-13.289 -21.33,-27.058 0,-47.703 85.66,-47.703 113.82,-47.703 81.38,0 118.45,48.179 118.45,92.941 0,42.449 -22.34,68.012 -74.63,85.441 -70.31,24.02 -73.27,34.551 -73.27,56.079 0,20.449 22.11,42.191 63.09,42.191 25.58,0 52.24,-7.031 71.3,-18.813 l 4.74,-2.929 4.98,2.492 c 11.15,5.578 16.56,14.578 16.56,27.508 0,25.133 -34.73,40.75 -90.63,40.75"
         style="fill:#231f20;fill-opacity:1;fill-rule:nonzero;stroke:none"
         id="path76" />
      <path
         d="m 3789.13,709.609 -206.27,-1.277 c -37.67,0 -39.58,-21.863 -39.58,-26.242 0,-6.039 0.88,-9.93 3.37,-14.91 l 2.72,-5.43 32.48,-0.512 c -1.57,-11.136 -3.18,-22.418 -4.79,-33.707 -4.55,-31.922 -9.27,-64.902 -12.82,-95 -8.61,-68.91 -11.68,-103.34 -11.68,-112.601 0,-31.461 15.87,-31.461 103.95,-31.461 83.4,0 107.45,1.203 107.45,27.98 0,5.801 -1.33,11.403 -3.96,16.653 l -2.76,5.527 h -139.58 c -3.35,0 -5.59,0.09 -7.08,0.223 0.05,0.367 0.1,0.796 0.18,1.277 l 11.63,91.551 92.12,-0.532 c 33.5,0 36.11,21.864 36.11,28.563 0,2.41 -0.25,8.621 -2.46,14.16 l -2.52,6.27 h -117.2 l 10.19,79.718 114.11,-0.539 h 0.05 c 28.96,0 43.65,9.61 43.65,28.571 0,6.14 -1.54,12.078 -4.33,16.73 l -2.98,4.988"
         style="fill:#231f20;fill-opacity:1;fill-rule:nonzero;stroke:none"
         id="path78" />
      <path
         d="m 4072.53,704.621 -3.01,5.02 -26.47,-0.743 -192.53,-0.566 c -37.26,0 -40.16,-20.094 -40.16,-26.242 0,-5.41 0.63,-9.82 3.74,-15 l 2.87,-4.801 95.12,-1.098 c -5.67,-39.972 -9.3,-67.269 -13.25,-96.941 l -4.31,-32.32 c -1.74,-14.121 -3.99,-31.739 -6.15,-48.539 -2.91,-22.621 -5.63,-43.782 -6.63,-53.18 -0.71,-7.031 -1.21,-12.289 -1.21,-16.082 0,-17.27 9.15,-25.66 27.98,-25.66 10.37,0 18.65,2.39 21.72,3.422 l 6,1.988 32.74,267.18 h 65.97 c 10.36,0 41.91,0 41.91,26.832 0,6.14 -1.54,12.078 -4.33,16.73"
         style="fill:#231f20;fill-opacity:1;fill-rule:nonzero;stroke:none"
         id="path80" />
      <path
         d="M 69.1836,1238.69 H 18.0117 v 18.47 H 142.578 v -18.47 H 91.1563 V 1088.91 H 69.1836 v 149.78"
         style="fill:#231f20;fill-opacity:1;fill-rule:nonzero;stroke:none"
         id="path82" />
      <path
         d="m 163.273,1088.91 v 120.82 h 21.969 v -120.82 z m 24.465,154.77 c 0.254,-7.49 -5.238,-13.48 -13.98,-13.48 -7.738,0 -13.227,5.99 -13.227,13.48 0,7.74 5.742,13.73 13.731,13.73 8.238,0 13.476,-5.99 13.476,-13.73"
         style="fill:#231f20;fill-opacity:1;fill-rule:nonzero;stroke:none"
         id="path84" />
      <path
         d="m 227.414,1266.14 h 21.969 v -177.23 h -21.969 v 177.23"
         style="fill:#231f20;fill-opacity:1;fill-rule:nonzero;stroke:none"
         id="path86" />
      <path
         d="m 313.773,1137.34 c 0,-2.75 0.5,-5.49 0.997,-7.99 4.25,-15.23 16.976,-25.72 32.953,-25.72 22.965,0 36.695,18.73 36.695,46.44 0,24.21 -12.48,44.93 -35.945,44.93 -14.977,0 -28.957,-10.23 -33.45,-26.96 -0.503,-2.49 -1.25,-5.49 -1.25,-8.99 z m -22.714,-48.43 c 0.5,8.24 0.996,20.47 0.996,31.2 v 146.03 h 21.718 v -75.88 h 0.5 c 7.739,13.48 21.715,22.21 41.192,22.21 29.953,0 51.172,-24.96 50.922,-61.65 0,-43.19 -27.207,-64.66 -54.172,-64.66 -17.477,0 -31.449,6.74 -40.438,22.72 h -0.75 l -1,-19.97 h -18.968"
         style="fill:#231f20;fill-opacity:1;fill-rule:nonzero;stroke:none"
         id="path88" />
      <path
         d="m 540.91,1121.86 c 0,-12.48 0.25,-23.47 0.996,-32.95 h -19.468 l -1.247,19.72 h -0.5 c -5.742,-9.74 -18.476,-22.47 -39.941,-22.47 -18.973,0 -41.687,10.48 -41.687,52.92 v 70.65 h 21.964 v -66.9 c 0,-22.96 6.989,-38.44 26.961,-38.44 14.731,0 24.965,10.23 28.957,19.97 1.246,3.24 2,7.23 2,11.23 v 74.14 h 21.965 v -87.87"
         style="fill:#231f20;fill-opacity:1;fill-rule:nonzero;stroke:none"
         id="path90" />
      <path
         d="m 583.066,1172.03 c 0,14.23 -0.25,26.47 -0.996,37.7 h 19.219 l 0.75,-23.71 h 0.996 c 5.492,16.22 18.727,26.45 33.453,26.45 2.496,0 4.242,-0.24 6.242,-0.74 v -20.72 c -2.25,0.5 -4.496,0.75 -7.492,0.75 -15.476,0 -26.461,-11.74 -29.453,-28.21 -0.504,-3 -1,-6.49 -1,-10.24 v -64.4 h -21.719 v 83.12"
         style="fill:#231f20;fill-opacity:1;fill-rule:nonzero;stroke:none"
         id="path92" />
      <path
         d="m 749.809,1162.05 c 0,3.74 -0.25,7 -1.25,9.98 -3.993,12.74 -14.727,23.23 -30.704,23.23 -20.972,0 -35.949,-17.73 -35.949,-45.69 0,-23.72 11.985,-43.44 35.699,-43.44 13.485,0 25.715,8.49 30.458,22.47 1.25,3.75 1.746,7.98 1.746,11.73 z m 22.714,47.68 c -0.5,-8.73 -0.996,-18.47 -0.996,-33.2 v -70.15 c 0,-27.71 -5.492,-44.68 -17.226,-55.17 -11.735,-10.98 -28.707,-14.48 -43.938,-14.48 -14.476,0 -30.453,3.5 -40.187,9.99 l 5.492,16.73 c 7.988,-5 20.469,-9.49 35.449,-9.49 22.465,0 38.942,11.74 38.942,42.18 v 13.49 h -0.5 c -6.743,-11.24 -19.719,-20.22 -38.442,-20.22 -29.961,0 -51.426,25.46 -51.426,58.91 0,40.94 26.707,64.15 54.418,64.15 20.973,0 32.454,-10.97 37.696,-20.96 h 0.5 l 1,18.22 h 19.218"
         style="fill:#231f20;fill-opacity:1;fill-rule:nonzero;stroke:none"
         id="path94" />
      <path
         d="m 870.086,1115.37 c 9.738,-5.99 23.965,-10.98 38.941,-10.98 22.223,0 35.2,11.73 35.2,28.71 0,15.72 -8.985,24.7 -31.704,33.45 -27.46,9.73 -44.433,23.96 -44.433,47.67 0,26.21 21.719,45.68 54.418,45.68 17.226,0 29.707,-3.99 37.199,-8.23 l -5.992,-17.72 c -5.492,3 -16.731,7.99 -31.953,7.99 -22.969,0 -31.703,-13.73 -31.703,-25.22 0,-15.72 10.234,-23.47 33.453,-32.45 28.457,-10.99 42.933,-24.72 42.933,-49.42 0,-25.97 -19.218,-48.44 -58.914,-48.44 -16.222,0 -33.949,4.74 -42.937,10.74 l 5.492,18.22"
         style="fill:#231f20;fill-opacity:1;fill-rule:nonzero;stroke:none"
         id="path96" />
      <path
         d="m 1088.74,1093.4 c -5.74,-3 -18.47,-6.99 -34.7,-6.99 -36.44,0 -60.157,24.72 -60.157,61.66 0,37.2 25.457,64.16 64.897,64.16 12.99,0 24.47,-3.24 30.46,-6.24 l -4.99,-16.97 c -5.25,2.98 -13.48,5.73 -25.47,5.73 -27.71,0 -42.68,-20.47 -42.68,-45.68 0,-27.95 17.97,-45.18 41.94,-45.18 12.48,0 20.71,3.24 26.95,5.99 l 3.75,-16.48"
         style="fill:#231f20;fill-opacity:1;fill-rule:nonzero;stroke:none"
         id="path98" />
      <path
         d="m 1120.17,1266.14 h 21.97 v -75.38 h 0.5 c 3.49,6.24 8.99,11.73 15.72,15.47 6.5,3.75 14.23,6.24 22.47,6.24 16.23,0 42.19,-9.98 42.19,-51.67 v -71.89 h -21.97 v 69.39 c 0,19.48 -7.24,35.95 -27.96,35.95 -14.23,0 -25.46,-9.98 -29.45,-21.96 -1.25,-3 -1.5,-6.24 -1.5,-10.49 v -72.89 h -21.97 v 177.23"
         style="fill:#231f20;fill-opacity:1;fill-rule:nonzero;stroke:none"
         id="path100" />
      <path
         d="m 1277.91,1149.07 c 0,-26.46 15.23,-46.43 36.69,-46.43 20.98,0 36.7,19.72 36.7,46.93 0,20.47 -10.23,46.43 -36.2,46.43 -25.96,0 -37.19,-23.97 -37.19,-46.93 z m 95.86,1.24 c 0,-44.67 -30.96,-64.15 -60.16,-64.15 -32.71,0 -57.92,23.97 -57.92,62.16 0,40.44 26.46,64.15 59.91,64.15 34.7,0 58.17,-25.2 58.17,-62.16"
         style="fill:#231f20;fill-opacity:1;fill-rule:nonzero;stroke:none"
         id="path102" />
      <path
         d="m 1420.67,1149.07 c 0,-26.46 15.23,-46.43 36.7,-46.43 20.97,0 36.7,19.72 36.7,46.93 0,20.47 -10.24,46.43 -36.2,46.43 -25.96,0 -37.2,-23.97 -37.2,-46.93 z m 95.86,1.24 c 0,-44.67 -30.95,-64.15 -60.16,-64.15 -32.7,0 -57.91,23.97 -57.91,62.16 0,40.44 26.46,64.15 59.91,64.15 34.7,0 58.16,-25.2 58.16,-62.16"
         style="fill:#231f20;fill-opacity:1;fill-rule:nonzero;stroke:none"
         id="path104" />
      <path
         d="m 1549.95,1266.14 h 21.97 v -177.23 h -21.97 v 177.23"
         style="fill:#231f20;fill-opacity:1;fill-rule:nonzero;stroke:none"
         id="path106" />
      <path
         d="m 1686.72,1149.07 c 0,-26.46 15.23,-46.43 36.7,-46.43 20.97,0 36.7,19.72 36.7,46.93 0,20.47 -10.24,46.43 -36.2,46.43 -25.97,0 -37.2,-23.97 -37.2,-46.93 z m 95.86,1.24 c 0,-44.67 -30.95,-64.15 -60.16,-64.15 -32.7,0 -57.91,23.97 -57.91,62.16 0,40.44 26.46,64.15 59.91,64.15 34.7,0 58.16,-25.2 58.16,-62.16"
         style="fill:#231f20;fill-opacity:1;fill-rule:nonzero;stroke:none"
         id="path108" />
      <path
         d="m 1818.25,1088.91 v 104.1 h -16.97 v 16.72 h 16.97 v 5.74 c 0,16.97 3.75,32.45 13.98,42.19 8.24,7.99 19.22,11.24 29.46,11.24 7.74,0 14.48,-1.75 18.72,-3.5 l -2.99,-16.98 c -3.25,1.5 -7.74,2.75 -13.98,2.75 -18.73,0 -23.47,-16.48 -23.47,-34.95 v -6.49 h 29.21 v -16.72 h -29.21 v -104.1 h -21.72"
         style="fill:#231f20;fill-opacity:1;fill-rule:nonzero;stroke:none"
         id="path110" />
      <path
         d="m 2041.15,1167.8 h -65.41 v -60.67 h 72.89 v -18.22 h -94.61 v 168.25 h 90.87 v -18.22 h -69.15 v -53.18 h 65.41 v -17.96"
         style="fill:#231f20;fill-opacity:1;fill-rule:nonzero;stroke:none"
         id="path112" />
      <path
         d="m 2166.93,1093.4 c -5.74,-3 -18.48,-6.99 -34.7,-6.99 -36.44,0 -60.17,24.72 -60.17,61.66 0,37.2 25.47,64.16 64.92,64.16 12.98,0 24.46,-3.24 30.45,-6.24 l -4.99,-16.97 c -5.25,2.98 -13.48,5.73 -25.46,5.73 -27.72,0 -42.7,-20.47 -42.7,-45.68 0,-27.95 17.98,-45.18 41.94,-45.18 12.49,0 20.73,3.24 26.97,5.99 l 3.74,-16.48"
         style="fill:#231f20;fill-opacity:1;fill-rule:nonzero;stroke:none"
         id="path114" />
      <path
         d="m 2210.35,1149.07 c 0,-26.46 15.23,-46.43 36.69,-46.43 20.97,0 36.7,19.72 36.7,46.93 0,20.47 -10.23,46.43 -36.2,46.43 -25.95,0 -37.19,-23.97 -37.19,-46.93 z m 95.86,1.24 c 0,-44.67 -30.95,-64.15 -60.16,-64.15 -32.71,0 -57.92,23.97 -57.92,62.16 0,40.44 26.46,64.15 59.91,64.15 34.71,0 58.17,-25.2 58.17,-62.16"
         style="fill:#231f20;fill-opacity:1;fill-rule:nonzero;stroke:none"
         id="path116" />
      <path
         d="m 2339.63,1177.03 c 0,12.48 -0.24,22.72 -0.99,32.7 h 19.47 l 1.24,-19.97 h 0.51 c 5.98,11.48 19.97,22.71 39.94,22.71 16.72,0 42.68,-9.98 42.68,-51.41 v -72.15 h -21.97 v 69.65 c 0,19.47 -7.23,35.69 -27.96,35.69 -14.47,0 -25.71,-10.23 -29.45,-22.46 -1,-2.74 -1.49,-6.49 -1.49,-10.24 v -72.64 h -21.98 v 88.12"
         style="fill:#231f20;fill-opacity:1;fill-rule:nonzero;stroke:none"
         id="path118" />
      <path
         d="m 2497.37,1149.07 c 0,-26.46 15.23,-46.43 36.7,-46.43 20.96,0 36.7,19.72 36.7,46.93 0,20.47 -10.24,46.43 -36.21,46.43 -25.95,0 -37.19,-23.97 -37.19,-46.93 z m 95.86,1.24 c 0,-44.67 -30.95,-64.15 -60.16,-64.15 -32.7,0 -57.92,23.97 -57.92,62.16 0,40.44 26.47,64.15 59.91,64.15 34.71,0 58.17,-25.2 58.17,-62.16"
         style="fill:#231f20;fill-opacity:1;fill-rule:nonzero;stroke:none"
         id="path120" />
      <path
         d="m 2626.65,1177.03 c 0,12.48 -0.25,22.72 -1,32.7 h 19.22 l 1,-19.47 h 0.75 c 6.74,11.48 17.98,22.21 37.95,22.21 16.47,0 28.95,-9.98 34.2,-24.21 h 0.5 c 3.74,6.74 8.48,11.99 13.47,15.73 7.24,5.49 15.23,8.48 26.71,8.48 15.98,0 39.7,-10.48 39.7,-52.42 v -71.14 h -21.48 v 68.4 c 0,23.21 -8.48,37.19 -26.21,37.19 -12.48,0 -22.21,-9.23 -25.95,-19.97 -1,-2.99 -1.75,-6.99 -1.75,-10.98 v -74.64 h -21.47 v 72.39 c 0,19.22 -8.49,33.2 -25.21,33.2 -13.73,0 -23.72,-10.98 -27.22,-21.97 -1.24,-3.24 -1.75,-6.98 -1.75,-10.73 v -72.89 h -21.46 v 88.12"
         style="fill:#231f20;fill-opacity:1;fill-rule:nonzero;stroke:none"
         id="path122" />
      <path
         d="m 2840.54,1088.91 v 120.82 h 21.97 v -120.82 z m 24.46,154.77 c 0.25,-7.49 -5.25,-13.48 -13.98,-13.48 -7.74,0 -13.23,5.99 -13.23,13.48 0,7.74 5.74,13.73 13.73,13.73 8.23,0 13.48,-5.99 13.48,-13.73"
         style="fill:#231f20;fill-opacity:1;fill-rule:nonzero;stroke:none"
         id="path124" />
      <path
         d="m 2990.8,1093.4 c -5.74,-3 -18.47,-6.99 -34.7,-6.99 -36.44,0 -60.16,24.72 -60.16,61.66 0,37.2 25.47,64.16 64.91,64.16 12.98,0 24.46,-3.24 30.45,-6.24 l -4.99,-16.97 c -5.25,2.98 -13.48,5.73 -25.46,5.73 -27.72,0 -42.7,-20.47 -42.7,-45.68 0,-27.95 17.98,-45.18 41.95,-45.18 12.48,0 20.72,3.24 26.96,5.99 l 3.74,-16.48"
         style="fill:#231f20;fill-opacity:1;fill-rule:nonzero;stroke:none"
         id="path126" />
      <path
         d="m 3019.24,1111.38 c 6.49,-4.25 17.98,-8.74 28.96,-8.74 15.98,0 23.46,7.99 23.46,17.97 0,10.49 -6.24,16.23 -22.46,22.22 -21.72,7.74 -31.95,19.72 -31.95,34.2 0,19.47 15.72,35.44 41.68,35.44 12.23,0 22.97,-3.48 29.71,-7.48 l -5.5,-15.97 c -4.73,2.98 -13.47,6.98 -24.7,6.98 -12.99,0 -20.23,-7.49 -20.23,-16.48 0,-9.98 7.24,-14.47 22.97,-20.47 20.97,-7.98 31.7,-18.47 31.7,-36.44 0,-21.22 -16.47,-36.2 -45.19,-36.2 -13.22,0 -25.45,3.25 -33.94,8.24 l 5.49,16.73"
         style="fill:#231f20;fill-opacity:1;fill-rule:nonzero;stroke:none"
         id="path128" />
      <path
         d="m 3269.11,1150.57 c -23.96,0.5 -51.17,-3.75 -51.17,-27.21 0,-14.23 9.49,-20.98 20.72,-20.98 15.72,0 25.71,10 29.21,20.23 0.74,2.25 1.24,4.75 1.24,6.99 z m 3.25,-61.66 -1.75,15.22 h -0.75 c -6.74,-9.48 -19.71,-17.97 -36.94,-17.97 -24.46,0 -36.94,17.23 -36.94,34.7 0,29.21 25.95,45.19 72.63,44.93 v 2.5 c 0,9.98 -2.74,27.96 -27.45,27.96 -11.24,0 -22.97,-3.49 -31.45,-8.98 l -5,14.47 c 9.99,6.49 24.46,10.73 39.69,10.73 36.95,0 45.93,-25.2 45.93,-49.42 v -45.19 c 0,-10.48 0.5,-20.71 2,-28.95 h -19.97"
         style="fill:#231f20;fill-opacity:1;fill-rule:nonzero;stroke:none"
         id="path130" />
      <path
         d="m 3331.5,1177.03 c 0,12.48 -0.24,22.72 -0.99,32.7 h 19.47 l 1.24,-19.97 h 0.51 c 5.98,11.48 19.97,22.71 39.94,22.71 16.72,0 42.68,-9.98 42.68,-51.41 v -72.15 h -21.97 v 69.65 c 0,19.47 -7.23,35.69 -27.96,35.69 -14.47,0 -25.71,-10.23 -29.45,-22.46 -1,-2.74 -1.49,-6.49 -1.49,-10.24 v -72.64 h -21.98 v 88.12"
         style="fill:#231f20;fill-opacity:1;fill-rule:nonzero;stroke:none"
         id="path132" />
      <path
         d="m 3558.14,1160.55 c 0,2.75 -0.25,6.49 -1,9.24 -3.24,13.98 -15.23,25.47 -31.7,25.47 -22.72,0 -36.2,-19.97 -36.2,-46.69 0,-24.47 11.98,-44.68 35.7,-44.68 14.73,0 28.2,9.74 32.2,26.21 0.75,3 1,5.99 1,9.48 z m 21.97,105.59 v -146.03 c 0,-10.73 0.25,-22.96 0.99,-31.2 h -19.71 l -1,20.97 h -0.5 c -6.75,-13.48 -21.47,-23.72 -41.19,-23.72 -29.21,0 -51.68,24.72 -51.68,61.41 -0.24,40.2 24.72,64.9 54.17,64.9 18.48,0 30.96,-8.73 36.46,-18.46 h 0.49 v 72.13 h 21.97"
         style="fill:#231f20;fill-opacity:1;fill-rule:nonzero;stroke:none"
         id="path134" />
      <path
         d="m 3843.46,1162.8 c -1.25,23.46 -2.75,51.67 -2.49,72.64 h -0.76 c -5.74,-19.72 -12.73,-40.69 -21.22,-63.9 l -29.7,-81.64 h -16.48 l -27.21,80.14 c -7.98,23.71 -14.72,45.43 -19.47,65.4 h -0.5 c -0.49,-20.97 -1.74,-49.18 -3.25,-74.38 l -4.49,-72.15 h -20.71 l 11.73,168.25 h 27.7 l 28.71,-81.38 c 6.99,-20.72 12.74,-39.2 16.97,-56.67 h 0.76 c 4.24,16.98 10.23,35.45 17.72,56.67 l 29.96,81.38 h 27.71 l 10.48,-168.25 h -21.22 l -4.24,73.89"
         style="fill:#231f20;fill-opacity:1;fill-rule:nonzero;stroke:none"
         id="path136" />
      <path
         d="m 3972.47,1150.57 c -23.97,0.5 -51.17,-3.75 -51.17,-27.21 0,-14.23 9.49,-20.98 20.72,-20.98 15.72,0 25.71,10 29.21,20.23 0.74,2.25 1.24,4.75 1.24,6.99 z m 3.25,-61.66 -1.75,15.22 h -0.75 c -6.74,-9.48 -19.72,-17.97 -36.94,-17.97 -24.46,0 -36.94,17.23 -36.94,34.7 0,29.21 25.95,45.19 72.63,44.93 v 2.5 c 0,9.98 -2.74,27.96 -27.45,27.96 -11.24,0 -22.97,-3.49 -31.45,-8.98 l -5,14.47 c 9.99,6.49 24.46,10.73 39.69,10.73 36.95,0 45.93,-25.2 45.93,-49.42 v -45.19 c 0,-10.48 0.5,-20.71 2,-28.95 h -19.97"
         style="fill:#231f20;fill-opacity:1;fill-rule:nonzero;stroke:none"
         id="path138" />
      <path
         d="m 4034.85,1177.03 c 0,12.48 -0.25,22.72 -0.99,32.7 h 19.47 l 1.25,-19.97 h 0.5 c 5.98,11.48 19.97,22.71 39.94,22.71 16.72,0 42.68,-9.98 42.68,-51.41 v -72.15 h -21.97 v 69.65 c 0,19.47 -7.23,35.69 -27.96,35.69 -14.47,0 -25.71,-10.23 -29.45,-22.46 -1,-2.74 -1.49,-6.49 -1.49,-10.24 v -72.64 h -21.98 v 88.12"
         style="fill:#231f20;fill-opacity:1;fill-rule:nonzero;stroke:none"
         id="path140" />
      <path
         d="m 4242.76,1150.57 c -23.96,0.5 -51.17,-3.75 -51.17,-27.21 0,-14.23 9.49,-20.98 20.72,-20.98 15.73,0 25.72,10 29.21,20.23 0.74,2.25 1.24,4.75 1.24,6.99 z m 3.25,-61.66 -1.74,15.22 h -0.76 c -6.73,-9.48 -19.71,-17.97 -36.94,-17.97 -24.46,0 -36.94,17.23 -36.94,34.7 0,29.21 25.96,45.19 72.63,44.93 v 2.5 c 0,9.98 -2.74,27.96 -27.45,27.96 -11.24,0 -22.97,-3.49 -31.45,-8.98 l -5,14.47 c 9.99,6.49 24.46,10.73 39.7,10.73 36.94,0 45.92,-25.2 45.92,-49.42 v -45.19 c 0,-10.48 0.5,-20.71 2.01,-28.95 h -19.98"
         style="fill:#231f20;fill-opacity:1;fill-rule:nonzero;stroke:none"
         id="path142" />
      <path
         d="m 4386.53,1162.05 c 0,3.74 -0.24,7 -1.24,9.98 -3.99,12.74 -14.73,23.23 -30.71,23.23 -20.97,0 -35.95,-17.73 -35.95,-45.69 0,-23.72 11.98,-43.44 35.71,-43.44 13.47,0 25.71,8.49 30.45,22.47 1.24,3.75 1.74,7.98 1.74,11.73 z m 22.73,47.68 c -0.5,-8.73 -1.01,-18.47 -1.01,-33.2 v -70.15 c 0,-27.71 -5.49,-44.68 -17.22,-55.17 -11.73,-10.98 -28.71,-14.48 -43.93,-14.48 -14.48,0 -30.46,3.5 -40.2,9.99 l 5.49,16.73 c 7.99,-5 20.47,-9.49 35.45,-9.49 22.47,0 38.95,11.74 38.95,42.18 v 13.49 h -0.5 c -6.74,-11.24 -19.73,-20.22 -38.45,-20.22 -29.95,0 -51.42,25.46 -51.42,58.91 0,40.94 26.71,64.15 54.42,64.15 20.97,0 32.45,-10.97 37.69,-20.96 h 0.5 l 1,18.22 h 19.23"
         style="fill:#231f20;fill-opacity:1;fill-rule:nonzero;stroke:none"
         id="path144" />
      <path
         d="m 4527.05,1161.06 c 0.24,13.97 -5.74,35.69 -30.46,35.69 -22.22,0 -31.95,-20.47 -33.7,-35.69 z m -64.4,-15.74 c 0.49,-29.7 19.47,-41.93 41.43,-41.93 15.72,0 25.22,2.74 33.45,6.24 l 3.75,-15.73 c -7.75,-3.5 -20.97,-7.49 -40.2,-7.49 -37.19,0 -59.41,24.47 -59.41,60.92 0,36.44 21.47,65.14 56.67,65.14 39.44,0 49.93,-34.69 49.93,-56.91 0,-4.49 -0.51,-7.99 -0.75,-10.24 h -84.87"
         style="fill:#231f20;fill-opacity:1;fill-rule:nonzero;stroke:none"
         id="path146" />
      <path
         d="m 4581.19,1177.03 c 0,12.48 -0.24,22.72 -1,32.7 h 19.22 l 1,-19.47 h 0.75 c 6.74,11.48 17.98,22.21 37.95,22.21 16.48,0 28.96,-9.98 34.2,-24.21 h 0.5 c 3.74,6.74 8.48,11.99 13.47,15.73 7.24,5.49 15.23,8.48 26.71,8.48 15.98,0 39.7,-10.48 39.7,-52.42 v -71.14 h -21.47 v 68.4 c 0,23.21 -8.49,37.19 -26.22,37.19 -12.48,0 -22.21,-9.23 -25.95,-19.97 -1,-2.99 -1.75,-6.99 -1.75,-10.98 v -74.64 h -21.47 v 72.39 c 0,19.22 -8.49,33.2 -25.21,33.2 -13.73,0 -23.72,-10.98 -27.22,-21.97 -1.24,-3.24 -1.74,-6.98 -1.74,-10.73 v -72.89 h -21.47 v 88.12"
         style="fill:#231f20;fill-opacity:1;fill-rule:nonzero;stroke:none"
         id="path148" />
      <path
         d="m 4871.73,1161.06 c 0.24,13.97 -5.74,35.69 -30.46,35.69 -22.22,0 -31.95,-20.47 -33.7,-35.69 z m -64.41,-15.74 c 0.5,-29.7 19.47,-41.93 41.44,-41.93 15.72,0 25.21,2.74 33.45,6.24 l 3.75,-15.73 c -7.75,-3.5 -20.97,-7.49 -40.2,-7.49 -37.2,0 -59.41,24.47 -59.41,60.92 0,36.44 21.47,65.14 56.67,65.14 39.44,0 49.93,-34.69 49.93,-56.91 0,-4.49 -0.51,-7.99 -0.75,-10.24 h -84.88"
         style="fill:#231f20;fill-opacity:1;fill-rule:nonzero;stroke:none"
         id="path150" />
      <path
         d="m 4925.87,1177.03 c 0,12.48 -0.26,22.72 -1,32.7 h 19.47 l 1.25,-19.97 h 0.5 c 5.99,11.48 19.97,22.71 39.94,22.71 16.72,0 42.69,-9.98 42.69,-51.41 v -72.15 h -21.97 v 69.65 c 0,19.47 -7.24,35.69 -27.96,35.69 -14.47,0 -25.71,-10.23 -29.45,-22.46 -1,-2.74 -1.5,-6.49 -1.5,-10.24 v -72.64 h -21.97 v 88.12"
         style="fill:#231f20;fill-opacity:1;fill-rule:nonzero;stroke:none"
         id="path152" />
      <path
         d="m 5095.59,1244.43 v -34.7 h 31.46 v -16.72 h -31.46 v -65.16 c 0,-14.98 4.24,-23.46 16.48,-23.46 5.74,0 9.98,0.75 12.72,1.49 l 1.01,-16.47 c -4.25,-1.75 -10.99,-3 -19.47,-3 -10.24,0 -18.48,3.25 -23.72,9.24 -6.24,6.49 -8.49,17.22 -8.49,31.45 v 65.91 h -18.72 v 16.72 h 18.72 v 28.96 l 21.47,5.74"
         style="fill:#231f20;fill-opacity:1;fill-rule:nonzero;stroke:none"
         id="path154" />
      <path
         d="m 211.441,1498.76 -131.859,347.5 h -2.1484 c 0.7109,-7.34 1.3437,-16.29 1.8789,-26.85 0.5391,-10.57 0.9805,-22.07 1.3438,-34.51 0.3554,-12.45 0.5351,-25.11 0.5351,-38 V 1498.76 H 38.7617 v 392.62 h 67.6763 l 124.339,-326.56 h 1.879 l 126.223,326.56 h 67.137 v -392.62 h -45.118 v 251.36 c 0,11.64 0.176,23.32 0.54,35.05 0.355,11.72 0.804,22.82 1.343,33.3 0.535,10.47 1.074,19.56 1.61,27.26 h -2.149 L 248.77,1498.76 h -37.329"
         style="fill:#231f20;fill-opacity:1;fill-rule:nonzero;stroke:none"
         id="path156" />
      <path
         d="m 652.168,1761.94 c -23.813,0 -42.789,-7.8 -56.934,-23.36 -14.144,-15.59 -22.558,-37.34 -25.242,-65.26 h 155.762 c -0.18,17.54 -2.91,32.98 -8.188,46.32 -5.285,13.33 -13.296,23.72 -24.039,31.15 -10.742,7.43 -24.531,11.15 -41.359,11.15 z m 0.539,36.52 c 25.063,0 46.547,-5.55 64.453,-16.65 17.899,-11.1 31.598,-26.63 41.09,-46.59 9.484,-19.97 14.23,-43.28 14.23,-69.96 v -27.65 H 569.188 c 0.535,-34.57 9.128,-60.88 25.781,-78.97 16.648,-18.08 40.101,-27.12 70.359,-27.12 18.617,0 35.09,1.7 49.414,5.11 14.321,3.4 29.18,8.41 44.582,15.04 v -39.22 c -14.863,-6.62 -29.586,-11.46 -44.179,-14.49 -14.59,-3.05 -31.825,-4.57 -51.696,-4.57 -28.293,0 -52.949,5.77 -73.988,17.32 -21.035,11.54 -37.375,28.51 -49.012,50.89 -11.64,22.38 -17.453,49.78 -17.453,82.18 0,31.69 5.324,59.11 15.977,82.31 10.652,23.18 25.691,41.04 45.117,53.57 19.426,12.53 42.297,18.8 68.617,18.8"
         style="fill:#231f20;fill-opacity:1;fill-rule:nonzero;stroke:none"
         id="path158" />
      <path
         d="m 1000.24,1798.46 c 34.91,0 61.32,-8.55 79.22,-25.64 17.9,-17.1 26.86,-44.55 26.86,-82.32 v -191.74 h -44.04 v 188.79 c 0,24.52 -5.6,42.87 -16.79,55.05 -11.19,12.18 -28.33,18.26 -51.427,18.26 -32.586,0 -55.5,-9.22 -68.75,-27.65 -13.25,-18.45 -19.872,-45.21 -19.872,-80.3 v -154.15 h -44.582 v 294.33 h 35.989 l 6.715,-42.43 h 2.414 c 6.265,10.38 14.234,19.11 23.902,26.18 9.668,7.07 20.5,12.44 32.496,16.11 11.992,3.67 24.613,5.51 37.865,5.51"
         style="fill:#231f20;fill-opacity:1;fill-rule:nonzero;stroke:none"
         id="path160" />
      <path
         d="m 1305.89,1529.91 c 7.33,0 14.85,0.63 22.55,1.88 7.7,1.25 13.97,2.78 18.8,4.57 v -34.65 c -5.19,-2.33 -12.39,-4.3 -21.61,-5.9 -9.23,-1.62 -18.23,-2.42 -27,-2.42 -15.57,0 -29.72,2.73 -42.43,8.19 -12.71,5.46 -22.87,14.73 -30.48,27.79 -7.61,13.07 -11.41,31.16 -11.41,54.25 v 174.56 h -41.9 v 21.74 l 42.17,17.47 17.72,63.91 h 26.86 v -68.21 h 86.2 v -34.91 h -86.2 v -173.21 c 0,-18.45 4.25,-32.23 12.76,-41.37 8.5,-9.12 19.82,-13.69 33.97,-13.69"
         style="fill:#231f20;fill-opacity:1;fill-rule:nonzero;stroke:none"
         id="path162" />
      <path
         d="m 1449.32,1646.46 c 0,-23.63 3.13,-44.13 9.4,-61.49 6.27,-17.37 15.93,-30.8 29.01,-40.29 13.06,-9.49 29.89,-14.23 50.48,-14.23 20.41,0 37.2,4.74 50.36,14.23 13.16,9.49 22.87,22.92 29.14,40.29 6.26,17.36 9.4,37.86 9.4,61.49 0,23.46 -3.14,43.73 -9.4,60.83 -6.27,17.09 -15.94,30.3 -29.01,39.61 -13.07,9.3 -29.99,13.96 -50.75,13.96 -30.62,0 -53.04,-10.11 -67.28,-30.35 -14.23,-20.22 -21.35,-48.24 -21.35,-84.05 z m 223.98,0 c 0,-24.17 -3.14,-45.74 -9.4,-64.71 -6.27,-18.99 -15.31,-35.01 -27.13,-48.08 -11.81,-13.07 -26.09,-23.06 -42.83,-29.94 -16.74,-6.9 -35.68,-10.34 -56.8,-10.34 -19.7,0 -37.73,3.44 -54.12,10.34 -16.37,6.88 -30.52,16.87 -42.43,29.94 -11.9,13.07 -21.12,29.09 -27.65,48.08 -6.54,18.97 -9.81,40.54 -9.81,64.71 0,32.23 5.46,59.66 16.38,82.31 10.92,22.65 26.55,39.92 46.86,51.83 20.33,11.9 44.54,17.86 72.65,17.86 26.86,0 50.35,-6 70.5,-17.99 20.13,-12 35.8,-29.32 46.99,-51.97 11.19,-22.65 16.79,-49.99 16.79,-82.04"
         style="fill:#231f20;fill-opacity:1;fill-rule:nonzero;stroke:none"
         id="path164" />
      <path
         d="m 1896.76,1798.46 c 5.91,0 12.09,-0.31 18.53,-0.94 6.45,-0.63 12.18,-1.48 17.19,-2.56 l -5.64,-41.34 c -4.83,1.25 -10.2,2.23 -16.11,2.95 -5.91,0.71 -11.46,1.07 -16.65,1.07 -11.82,0 -22.97,-2.37 -33.43,-7.12 -10.48,-4.75 -19.66,-11.54 -27.53,-20.41 -7.88,-8.86 -14.06,-19.51 -18.53,-31.95 -4.48,-12.45 -6.72,-26.28 -6.72,-41.49 v -157.91 h -44.85 v 294.33 h 37.06 l 4.84,-54.25 h 1.88 c 6.08,10.92 13.43,20.9 22.02,29.94 8.59,9.05 18.57,16.25 29.94,21.62 11.37,5.37 24.04,8.06 38,8.06"
         style="fill:#231f20;fill-opacity:1;fill-rule:nonzero;stroke:none"
         id="path166" />
      <path
         d="m 2190.86,1579.32 c 0,-18.79 -4.7,-34.6 -14.11,-47.4 -9.39,-12.8 -22.82,-22.42 -40.28,-28.87 -17.45,-6.44 -38.27,-9.66 -62.44,-9.66 -20.59,0 -38.4,1.61 -53.44,4.83 -15.04,3.22 -28.2,7.78 -39.48,13.7 v 41.09 c 12,-5.91 26.32,-11.28 42.97,-16.12 16.65,-4.83 33.66,-7.25 51.03,-7.25 25.42,0 43.86,4.12 55.32,12.36 11.46,8.23 17.19,19.42 17.19,33.56 0,8.06 -2.28,15.18 -6.85,21.35 -4.56,6.18 -12.22,12.18 -22.96,18 -10.74,5.81 -25.61,12.22 -44.58,19.2 -18.8,7.16 -35.05,14.28 -48.74,21.35 -13.7,7.07 -24.26,15.71 -31.69,25.92 -7.43,10.2 -11.15,23.45 -11.15,39.74 0,24.88 10.08,43.99 30.21,57.33 20.15,13.34 46.6,20.01 79.36,20.01 17.73,0 34.33,-1.75 49.82,-5.23 15.48,-3.5 29.94,-8.2 43.37,-14.11 l -15.04,-35.72 c -12.18,5.2 -25.15,9.58 -38.94,13.17 -13.79,3.58 -27.84,5.37 -42.16,5.37 -20.59,0 -36.39,-3.4 -47.4,-10.21 -11.01,-6.81 -16.52,-16.11 -16.52,-27.93 0,-9.13 2.55,-16.65 7.66,-22.56 5.1,-5.9 13.29,-11.45 24.57,-16.64 11.28,-5.2 26.14,-11.28 44.58,-18.26 18.44,-6.81 34.37,-13.83 47.8,-21.09 13.43,-7.24 23.77,-16.02 31.02,-26.32 7.25,-10.29 10.88,-23.49 10.88,-39.61"
         style="fill:#231f20;fill-opacity:1;fill-rule:nonzero;stroke:none"
         id="path168" />
      <path
         d="m 2319.79,1916.62 v -124.88 c 0,-7.16 -0.18,-14.36 -0.54,-21.61 -0.36,-7.26 -0.98,-13.93 -1.88,-20.01 h 2.96 c 6.08,10.38 13.83,19.11 23.23,26.18 9.4,7.07 20.09,12.44 32.09,16.12 11.99,3.67 24.71,5.5 38.14,5.5 23.63,0 43.37,-3.76 59.21,-11.28 15.85,-7.52 27.75,-19.16 35.72,-34.91 7.97,-15.75 11.95,-36.16 11.95,-61.23 v -191.74 h -44.04 v 188.79 c 0,24.52 -5.6,42.87 -16.78,55.05 -11.2,12.18 -28.34,18.26 -51.44,18.26 -21.84,0 -39.25,-4.16 -52.23,-12.49 -12.98,-8.32 -22.29,-20.53 -27.93,-36.65 -5.64,-16.11 -8.46,-35.8 -8.46,-59.08 v -153.88 h -44.58 v 417.86 h 44.58"
         style="fill:#231f20;fill-opacity:1;fill-rule:nonzero;stroke:none"
         id="path170" />
      <path
         d="m 2669.75,1793.09 v -294.33 h -44.58 v 294.33 z m -21.76,110.11 c 7.34,0 13.66,-2.38 18.94,-7.12 5.28,-4.75 7.92,-12.13 7.92,-22.15 0,-9.85 -2.64,-17.19 -7.92,-22.03 -5.28,-4.83 -11.6,-7.25 -18.94,-7.25 -7.7,0 -14.1,2.42 -19.19,7.25 -5.11,4.84 -7.66,12.18 -7.66,22.03 0,10.02 2.55,17.4 7.66,22.15 5.09,4.74 11.49,7.12 19.19,7.12"
         style="fill:#231f20;fill-opacity:1;fill-rule:nonzero;stroke:none"
         id="path172" />
      <path
         d="m 2907.17,1760.86 c -20.41,0 -36.83,-3.93 -49.28,-11.81 -12.44,-7.88 -21.53,-19.65 -27.25,-35.32 -5.74,-15.67 -8.78,-35.3 -9.13,-58.94 v -8.59 c 0,-24.89 2.72,-45.93 8.19,-63.12 5.46,-17.18 14.5,-30.25 27.12,-39.2 12.62,-8.96 29.58,-13.43 50.89,-13.43 18.26,0 33.48,4.92 45.66,14.77 12.17,9.85 21.26,23.59 27.26,41.22 5.99,17.63 8.99,37.91 8.99,60.83 0,34.73 -6.76,62.34 -20.27,82.84 -13.52,20.5 -34.25,30.75 -62.18,30.75 z m 7.79,37.6 c 36.7,0 65.97,-12.62 87.82,-37.87 21.84,-25.24 32.76,-63.19 32.76,-113.86 0,-33.48 -5.01,-61.59 -15.04,-84.32 -10.02,-22.74 -24.12,-39.93 -42.3,-51.56 -18.16,-11.64 -39.6,-17.46 -64.31,-17.46 -15.58,0 -29.27,2.06 -41.09,6.17 -11.82,4.12 -21.93,9.67 -30.35,16.66 -8.42,6.97 -15.4,14.59 -20.94,22.82 h -3.23 c 0.54,-6.98 1.21,-15.4 2.01,-25.24 0.82,-9.85 1.22,-18.44 1.22,-25.78 v -120.85 h -44.85 v 425.92 h 36.79 l 5.91,-43.51 h 2.15 c 5.72,8.96 12.71,17.14 20.94,24.57 8.24,7.44 18.31,13.34 30.22,17.73 11.9,4.38 26,6.58 42.29,6.58"
         style="fill:#231f20;fill-opacity:1;fill-rule:nonzero;stroke:none"
         id="path174" />
      <path
         d="m 3509.6,1603.23 c 0,-23.28 -5.78,-43.1 -17.32,-59.49 -11.55,-16.38 -27.71,-28.87 -48.47,-37.46 -20.78,-8.6 -45.21,-12.89 -73.32,-12.89 -14.86,0 -28.92,0.71 -42.16,2.15 -13.26,1.43 -25.43,3.49 -36.53,6.17 -11.1,2.69 -20.86,6 -29.27,9.94 v 43.77 c 13.43,-5.55 29.81,-10.7 49.15,-15.44 19.33,-4.75 39.56,-7.12 60.69,-7.12 19.69,0 36.34,2.65 49.95,7.93 13.6,5.27 23.95,12.89 31.02,22.82 7.07,9.94 10.61,21.89 10.61,35.85 0,13.44 -2.96,24.67 -8.87,33.71 -5.9,9.04 -15.71,17.28 -29.4,24.71 -13.7,7.42 -32.36,15.35 -56,23.77 -16.65,5.9 -31.33,12.39 -44.04,19.46 -12.71,7.07 -23.36,15.08 -31.96,24.03 -8.59,8.95 -15.08,19.34 -19.46,31.15 -4.39,11.82 -6.59,25.34 -6.59,40.56 0,20.95 5.33,38.9 15.98,53.85 10.65,14.94 25.42,26.4 44.32,34.37 18.88,7.96 40.59,11.94 65.12,11.94 20.95,0 40.33,-1.96 58.14,-5.89 17.82,-3.95 34.15,-9.23 49.01,-15.85 l -14.23,-39.21 c -14.15,5.91 -29.14,10.83 -44.99,14.76 -15.84,3.95 -32.18,5.92 -49.01,5.92 -16.83,0 -31.02,-2.47 -42.56,-7.39 -11.55,-4.92 -20.37,-11.86 -26.45,-20.81 -6.09,-8.96 -9.14,-19.61 -9.14,-31.95 0,-13.79 2.91,-25.26 8.74,-34.38 5.81,-9.14 15.12,-17.24 27.92,-24.31 12.8,-7.08 29.77,-14.46 50.89,-22.15 23.1,-8.42 42.7,-17.33 58.82,-26.72 16.11,-9.4 28.37,-20.86 36.79,-34.37 8.41,-13.53 12.62,-30.67 12.62,-51.43"
         style="fill:#231f20;fill-opacity:1;fill-rule:nonzero;stroke:none"
         id="path176" />
      <path
         d="m 3549.11,1793.09 h 47.8 l 64.99,-170.8 c 3.76,-10.03 7.25,-19.65 10.47,-28.86 3.23,-9.23 6.09,-18.04 8.6,-26.46 2.5,-8.42 4.47,-16.56 5.91,-24.44 h 1.88 c 2.5,8.95 6.08,20.72 10.74,35.32 4.65,14.59 9.67,29.49 15.04,44.72 l 61.5,170.52 h 48.07 l -128.1,-337.57 c -6.81,-18.08 -14.73,-33.83 -23.77,-47.27 -9.04,-13.42 -20.01,-23.76 -32.9,-31.02 -12.89,-7.24 -28.46,-10.87 -46.73,-10.87 -8.41,0 -15.84,0.49 -22.29,1.48 -6.44,0.99 -11.99,2.1 -16.65,3.36 v 35.71 c 3.94,-0.9 8.73,-1.7 14.37,-2.41 5.64,-0.72 11.5,-1.07 17.59,-1.07 11.1,0 20.72,2.1 28.87,6.3 8.15,4.21 15.17,10.34 21.08,18.4 5.91,8.05 11.01,17.63 15.31,28.73 l 16.11,41.36 -117.89,294.87"
         style="fill:#231f20;fill-opacity:1;fill-rule:nonzero;stroke:none"
         id="path178" />
      <path
         d="m 4074.16,1579.32 c 0,-18.79 -4.7,-34.6 -14.1,-47.4 -9.4,-12.8 -22.83,-22.42 -40.29,-28.87 -17.45,-6.44 -38.26,-9.66 -62.43,-9.66 -20.6,0 -38.41,1.61 -53.45,4.83 -15.04,3.22 -28.2,7.78 -39.47,13.7 v 41.09 c 11.99,-5.91 26.31,-11.28 42.96,-16.12 16.65,-4.83 33.66,-7.25 51.03,-7.25 25.42,0 43.86,4.12 55.32,12.36 11.46,8.23 17.19,19.42 17.19,33.56 0,8.06 -2.28,15.18 -6.85,21.35 -4.56,6.18 -12.22,12.18 -22.96,18 -10.74,5.81 -25.61,12.22 -44.58,19.2 -18.8,7.16 -35.05,14.28 -48.74,21.35 -13.7,7.07 -24.26,15.71 -31.69,25.92 -7.43,10.2 -11.15,23.45 -11.15,39.74 0,24.88 10.08,43.99 30.21,57.33 20.15,13.34 46.6,20.01 79.36,20.01 17.73,0 34.33,-1.75 49.82,-5.23 15.49,-3.5 29.94,-8.2 43.37,-14.11 l -15.04,-35.72 c -12.18,5.2 -25.15,9.58 -38.94,13.17 -13.79,3.58 -27.84,5.37 -42.16,5.37 -20.59,0 -36.39,-3.4 -47.4,-10.21 -11.01,-6.81 -16.52,-16.11 -16.52,-27.93 0,-9.13 2.55,-16.65 7.66,-22.56 5.1,-5.9 13.29,-11.45 24.57,-16.64 11.28,-5.2 26.14,-11.28 44.58,-18.26 18.44,-6.81 34.37,-13.83 47.8,-21.09 13.43,-7.24 23.77,-16.02 31.02,-26.32 7.25,-10.29 10.88,-23.49 10.88,-39.61"
         style="fill:#231f20;fill-opacity:1;fill-rule:nonzero;stroke:none"
         id="path180" />
      <path
         d="m 4253.58,1529.91 c 7.34,0 14.86,0.63 22.56,1.88 7.69,1.25 13.96,2.78 18.8,4.57 v -34.65 c -5.2,-2.33 -12.4,-4.3 -21.62,-5.9 -9.22,-1.62 -18.22,-2.42 -26.99,-2.42 -15.58,0 -29.72,2.73 -42.43,8.19 -12.72,5.46 -22.87,14.73 -30.48,27.79 -7.61,13.07 -11.42,31.16 -11.42,54.25 v 174.56 h -41.89 v 21.74 l 42.16,17.47 17.73,63.91 h 26.85 v -68.21 h 86.21 v -34.91 h -86.21 v -173.21 c 0,-18.45 4.26,-32.23 12.76,-41.37 8.5,-9.12 19.83,-13.69 33.97,-13.69"
         style="fill:#231f20;fill-opacity:1;fill-rule:nonzero;stroke:none"
         id="path182" />
      <path
         d="m 4480,1761.94 c -23.81,0 -42.79,-7.8 -56.93,-23.36 -14.15,-15.59 -22.56,-37.34 -25.25,-65.26 h 155.77 c -0.19,17.54 -2.91,32.98 -8.19,46.32 -5.29,13.33 -13.3,23.72 -24.04,31.15 -10.74,7.43 -24.53,11.15 -41.36,11.15 z m 0.54,36.52 c 25.06,0 46.55,-5.55 64.45,-16.65 17.9,-11.1 31.6,-26.63 41.09,-46.59 9.49,-19.97 14.23,-43.28 14.23,-69.96 v -27.65 h -203.29 c 0.54,-34.57 9.13,-60.88 25.78,-78.97 16.65,-18.08 40.1,-27.12 70.36,-27.12 18.62,0 35.09,1.7 49.41,5.11 14.33,3.4 29.18,8.41 44.58,15.04 v -39.22 c -14.86,-6.62 -29.58,-11.46 -44.17,-14.49 -14.59,-3.05 -31.83,-4.57 -51.7,-4.57 -28.29,0 -52.95,5.77 -73.99,17.32 -21.03,11.54 -37.37,28.51 -49.01,50.89 -11.64,22.38 -17.45,49.78 -17.45,82.18 0,31.69 5.32,59.11 15.97,82.31 10.66,23.18 25.7,41.04 45.12,53.57 19.43,12.53 42.3,18.8 68.62,18.8"
         style="fill:#231f20;fill-opacity:1;fill-rule:nonzero;stroke:none"
         id="path184" />
      <path
         d="m 5008.28,1798.46 c 32.4,0 56.84,-8.46 73.31,-25.38 16.47,-16.91 24.71,-44.08 24.71,-81.5 v -192.82 h -44.04 v 190.67 c 0,23.81 -5.15,41.67 -15.44,53.57 -10.3,11.91 -25.56,17.86 -45.79,17.86 -28.47,0 -49.15,-8.23 -62.04,-24.7 -12.89,-16.48 -19.34,-40.74 -19.34,-72.77 v -164.63 h -44.31 v 190.67 c 0,15.93 -2.28,29.18 -6.84,39.74 -4.57,10.57 -11.37,18.49 -20.41,23.77 -9.05,5.28 -20.46,7.92 -34.25,7.92 -19.51,0 -35.18,-4.02 -46.99,-12.09 -11.82,-8.04 -20.37,-20 -25.65,-35.85 -5.28,-15.84 -7.92,-35.3 -7.92,-58.4 v -155.76 h -44.58 v 294.33 h 35.98 l 6.72,-41.62 h 2.42 c 5.9,10.19 13.33,18.79 22.29,25.78 8.95,6.97 18.97,12.25 30.07,15.84 11.1,3.58 22.92,5.37 35.45,5.37 22.38,0 41.14,-4.16 56.26,-12.49 15.13,-8.32 26.1,-20.99 32.9,-38 h 2.42 c 9.67,17.01 22.91,29.68 39.75,38 16.82,8.33 35.26,12.49 55.32,12.49"
         style="fill:#231f20;fill-opacity:1;fill-rule:nonzero;stroke:none"
         id="path186" />
    </g>
  </g>
</svg>
